G75*
%MOIN*%
%OFA0B0*%
%FSLAX25Y25*%
%IPPOS*%
%LPD*%
%AMOC8*
5,1,8,0,0,1.08239X$1,22.5*
%
%ADD10C,0.07500*%
%ADD11OC8,0.07500*%
%ADD12C,0.05200*%
%ADD13OC8,0.06300*%
%ADD14C,0.05200*%
%ADD15C,0.07050*%
%ADD16OC8,0.05200*%
%ADD17C,0.04400*%
%ADD18C,0.01600*%
%ADD19C,0.03962*%
D10*
X0126000Y0088914D03*
X0016000Y0143914D03*
X0166000Y0188914D03*
X0261000Y0183914D03*
D11*
X0241000Y0183914D03*
X0166000Y0208914D03*
X0126000Y0108914D03*
X0016000Y0123914D03*
D12*
X0246000Y0066514D02*
X0246000Y0061314D01*
X0261000Y0061314D02*
X0261000Y0066514D01*
X0261000Y0036514D02*
X0261000Y0031314D01*
X0246000Y0031314D02*
X0246000Y0036514D01*
D13*
X0121000Y0163914D03*
X0121000Y0173914D03*
X0121000Y0183914D03*
X0121000Y0193914D03*
X0091000Y0193914D03*
X0091000Y0183914D03*
X0091000Y0173914D03*
X0091000Y0163914D03*
D14*
X0166000Y0158914D03*
X0176000Y0158914D03*
X0186000Y0158914D03*
X0196000Y0158914D03*
X0196000Y0128914D03*
X0186000Y0128914D03*
X0176000Y0128914D03*
X0166000Y0128914D03*
X0166000Y0078914D03*
X0176000Y0078914D03*
X0186000Y0078914D03*
X0196000Y0078914D03*
X0196000Y0048914D03*
X0186000Y0048914D03*
X0176000Y0048914D03*
X0166000Y0048914D03*
X0231000Y0223914D03*
X0241000Y0223914D03*
X0251000Y0223914D03*
X0261000Y0223914D03*
X0261000Y0253914D03*
X0251000Y0253914D03*
X0241000Y0253914D03*
X0231000Y0253914D03*
D15*
X0027025Y0028914D02*
X0019975Y0028914D01*
X0019975Y0048914D02*
X0027025Y0048914D01*
X0027025Y0068914D02*
X0019975Y0068914D01*
X0024975Y0208914D02*
X0032025Y0208914D01*
X0032025Y0228914D02*
X0024975Y0228914D01*
X0024975Y0248914D02*
X0032025Y0248914D01*
X0319975Y0183914D02*
X0327025Y0183914D01*
X0327025Y0163914D02*
X0319975Y0163914D01*
D16*
X0291000Y0183914D03*
X0276000Y0173914D03*
X0261000Y0148914D03*
X0246000Y0148914D03*
X0246000Y0163914D03*
X0231000Y0148914D03*
X0206000Y0163914D03*
X0196000Y0178914D03*
X0196000Y0218914D03*
X0186000Y0228914D03*
X0146000Y0228914D03*
X0136000Y0213914D03*
X0116000Y0218914D03*
X0076000Y0218914D03*
X0061000Y0203914D03*
X0061000Y0243914D03*
X0136000Y0173914D03*
X0121000Y0138914D03*
X0081000Y0138914D03*
X0231000Y0108914D03*
X0246000Y0108914D03*
X0261000Y0108914D03*
X0291000Y0143914D03*
X0311000Y0118914D03*
X0311000Y0078914D03*
X0276000Y0213914D03*
X0286000Y0223914D03*
X0286000Y0263914D03*
D17*
X0311000Y0223914D03*
X0321000Y0213914D03*
X0331000Y0223914D03*
D18*
X0321000Y0213914D01*
X0313717Y0207723D01*
X0332150Y0186037D01*
X0332150Y0181791D01*
X0320073Y0169714D01*
X0320073Y0167341D01*
X0323500Y0163914D01*
X0320073Y0169714D02*
X0247634Y0169714D01*
X0226800Y0190548D01*
X0226800Y0225654D01*
X0241000Y0239854D01*
X0241000Y0253914D01*
X0231000Y0253914D02*
X0231000Y0233914D01*
X0161000Y0163914D01*
X0166000Y0158914D01*
X0176000Y0158914D02*
X0196000Y0178914D01*
X0206000Y0168914D01*
X0206000Y0163914D01*
X0196000Y0158914D02*
X0196000Y0143914D01*
X0186000Y0133914D01*
X0186000Y0128914D01*
X0181000Y0123914D01*
X0161000Y0123914D01*
X0166000Y0128914D02*
X0151000Y0143914D01*
X0151000Y0173914D01*
X0166000Y0188914D01*
X0151000Y0173914D02*
X0136000Y0173914D01*
X0121000Y0183914D02*
X0116000Y0178914D01*
X0116000Y0158914D01*
X0081000Y0123914D01*
X0081000Y0113914D01*
X0026000Y0058914D01*
X0026000Y0048914D01*
X0023500Y0048914D01*
X0023500Y0068914D02*
X0021000Y0068914D01*
X0016000Y0073914D01*
X0016000Y0123914D01*
X0006000Y0133914D01*
X0006000Y0208914D01*
X0026000Y0228914D01*
X0028500Y0228914D01*
X0031000Y0228914D01*
X0031000Y0208914D02*
X0031000Y0158914D01*
X0016000Y0143914D01*
X0061000Y0143914D01*
X0091000Y0173914D01*
X0091000Y0183914D02*
X0101000Y0193914D01*
X0101000Y0198914D01*
X0096000Y0203914D01*
X0091000Y0203914D01*
X0076000Y0218914D01*
X0061000Y0233914D01*
X0061000Y0243914D01*
X0086000Y0248914D02*
X0106000Y0228914D01*
X0106000Y0208914D01*
X0121000Y0193914D01*
X0126000Y0188914D01*
X0126000Y0118914D01*
X0161000Y0118914D01*
X0161000Y0093914D01*
X0166000Y0108914D02*
X0171000Y0113914D01*
X0166000Y0108914D02*
X0166000Y0078914D01*
X0176000Y0078914D02*
X0231000Y0133914D01*
X0236000Y0128914D02*
X0236000Y0148914D01*
X0231000Y0148914D01*
X0236000Y0148914D02*
X0246000Y0148914D01*
X0246000Y0163914D01*
X0261000Y0148914D02*
X0241000Y0128914D01*
X0236000Y0128914D02*
X0221000Y0113914D01*
X0221000Y0093914D01*
X0176000Y0048914D01*
X0166000Y0048914D02*
X0191000Y0023914D01*
X0236000Y0023914D01*
X0246000Y0033914D01*
X0261000Y0033914D01*
X0261000Y0063914D02*
X0261000Y0108914D01*
X0251000Y0118914D01*
X0241000Y0118914D01*
X0231000Y0108914D01*
X0246000Y0108914D02*
X0246000Y0093914D01*
X0226000Y0093914D01*
X0216000Y0108914D02*
X0186000Y0078914D01*
X0146000Y0088914D02*
X0126000Y0088914D01*
X0126000Y0108914D02*
X0126000Y0118914D01*
X0121000Y0138914D02*
X0121000Y0163914D01*
X0116000Y0148914D02*
X0086000Y0118914D01*
X0086000Y0088914D01*
X0026000Y0028914D01*
X0023500Y0028914D01*
X0076000Y0118914D02*
X0076000Y0138914D01*
X0081000Y0138914D01*
X0076000Y0138914D02*
X0031000Y0138914D01*
X0016000Y0123914D01*
X0091000Y0193914D02*
X0081000Y0203914D01*
X0061000Y0203914D01*
X0031000Y0208914D02*
X0028500Y0208914D01*
X0028500Y0248914D02*
X0026000Y0248914D01*
X0086000Y0248914D01*
X0116000Y0218914D02*
X0131000Y0213914D01*
X0131000Y0188914D01*
X0131000Y0213914D02*
X0136000Y0213914D01*
X0146000Y0228914D02*
X0166000Y0208914D01*
X0186000Y0228914D02*
X0196000Y0218914D01*
X0231000Y0218914D02*
X0231000Y0223914D01*
X0231000Y0218914D02*
X0241000Y0208914D01*
X0241000Y0193914D01*
X0241000Y0183914D01*
X0246000Y0198914D02*
X0246000Y0208914D01*
X0236000Y0218914D01*
X0241000Y0223914D01*
X0246000Y0218914D02*
X0251000Y0223914D01*
X0256000Y0228914D01*
X0271000Y0243914D01*
X0281000Y0233914D01*
X0323500Y0183914D01*
X0291000Y0183914D02*
X0286000Y0183914D01*
X0276000Y0173914D01*
X0271000Y0173914D01*
X0261000Y0183914D01*
X0246000Y0198914D01*
X0251000Y0213914D02*
X0261000Y0223914D01*
X0276000Y0213914D02*
X0286000Y0223914D01*
X0271000Y0243914D02*
X0261000Y0253914D01*
X0261000Y0263914D02*
X0251000Y0253914D01*
X0261000Y0263914D02*
X0286000Y0263914D01*
X0286000Y0253326D01*
X0311000Y0223914D01*
X0321000Y0233914D02*
X0331000Y0223914D01*
X0261000Y0148914D02*
X0311000Y0098914D01*
X0311000Y0078914D01*
X0311000Y0118914D02*
X0291000Y0138914D01*
X0291000Y0143914D01*
X0246000Y0093914D02*
X0246000Y0063914D01*
X0186000Y0118914D02*
X0196000Y0128914D01*
X0186000Y0118914D02*
X0161000Y0118914D01*
X0186000Y0158914D02*
X0191000Y0163914D01*
D19*
X0191000Y0163914D03*
X0161000Y0163914D03*
X0131000Y0188914D03*
X0116000Y0148914D03*
X0076000Y0118914D03*
X0146000Y0088914D03*
X0161000Y0093914D03*
X0171000Y0113914D03*
X0161000Y0123914D03*
X0216000Y0108914D03*
X0226000Y0093914D03*
X0241000Y0128914D03*
X0231000Y0133914D03*
X0241000Y0193914D03*
X0251000Y0213914D03*
X0246000Y0218914D03*
X0256000Y0228914D03*
X0271000Y0243914D03*
X0321000Y0233914D03*
M02*
