G75*
%MOIN*%
%OFA0B0*%
%FSLAX25Y25*%
%IPPOS*%
%LPD*%
%AMOC8*
5,1,8,0,0,1.08239X$1,22.5*
%
%ADD10C,0.00000*%
%ADD11C,0.00600*%
%ADD12C,0.00500*%
%ADD13R,0.08000X0.02000*%
%ADD14R,0.02000X0.08000*%
%ADD15R,0.02000X0.02500*%
%ADD16R,0.02400X0.03400*%
%ADD17R,0.03400X0.02400*%
%ADD18C,0.00400*%
D10*
X0001000Y0018914D02*
X0001000Y0333875D01*
X0394701Y0333875D01*
X0394701Y0018914D01*
X0001000Y0018914D01*
D11*
X0003500Y0018914D02*
X0003500Y0078914D01*
X0004500Y0078914D01*
X0030500Y0078914D01*
X0040000Y0078914D01*
X0040000Y0018914D01*
X0030500Y0018914D01*
X0030500Y0024914D01*
X0030500Y0018914D02*
X0004500Y0018914D01*
X0003500Y0018914D01*
X0004500Y0018914D02*
X0004500Y0078914D01*
X0007800Y0068914D02*
X0007802Y0069003D01*
X0007808Y0069092D01*
X0007818Y0069181D01*
X0007832Y0069269D01*
X0007849Y0069356D01*
X0007871Y0069442D01*
X0007897Y0069528D01*
X0007926Y0069612D01*
X0007959Y0069695D01*
X0007995Y0069776D01*
X0008036Y0069856D01*
X0008079Y0069933D01*
X0008126Y0070009D01*
X0008177Y0070082D01*
X0008230Y0070153D01*
X0008287Y0070222D01*
X0008347Y0070288D01*
X0008410Y0070352D01*
X0008475Y0070412D01*
X0008543Y0070470D01*
X0008614Y0070524D01*
X0008687Y0070575D01*
X0008762Y0070623D01*
X0008839Y0070668D01*
X0008918Y0070709D01*
X0008999Y0070746D01*
X0009081Y0070780D01*
X0009165Y0070811D01*
X0009250Y0070837D01*
X0009336Y0070860D01*
X0009423Y0070878D01*
X0009511Y0070893D01*
X0009600Y0070904D01*
X0009689Y0070911D01*
X0009778Y0070914D01*
X0009867Y0070913D01*
X0009956Y0070908D01*
X0010044Y0070899D01*
X0010133Y0070886D01*
X0010220Y0070869D01*
X0010307Y0070849D01*
X0010393Y0070824D01*
X0010477Y0070796D01*
X0010560Y0070764D01*
X0010642Y0070728D01*
X0010722Y0070689D01*
X0010800Y0070646D01*
X0010876Y0070600D01*
X0010950Y0070550D01*
X0011022Y0070497D01*
X0011091Y0070441D01*
X0011158Y0070382D01*
X0011222Y0070320D01*
X0011283Y0070256D01*
X0011342Y0070188D01*
X0011397Y0070118D01*
X0011449Y0070046D01*
X0011498Y0069971D01*
X0011543Y0069895D01*
X0011585Y0069816D01*
X0011623Y0069736D01*
X0011658Y0069654D01*
X0011689Y0069570D01*
X0011717Y0069485D01*
X0011740Y0069399D01*
X0011760Y0069312D01*
X0011776Y0069225D01*
X0011788Y0069136D01*
X0011796Y0069048D01*
X0011800Y0068959D01*
X0011800Y0068869D01*
X0011796Y0068780D01*
X0011788Y0068692D01*
X0011776Y0068603D01*
X0011760Y0068516D01*
X0011740Y0068429D01*
X0011717Y0068343D01*
X0011689Y0068258D01*
X0011658Y0068174D01*
X0011623Y0068092D01*
X0011585Y0068012D01*
X0011543Y0067933D01*
X0011498Y0067857D01*
X0011449Y0067782D01*
X0011397Y0067710D01*
X0011342Y0067640D01*
X0011283Y0067572D01*
X0011222Y0067508D01*
X0011158Y0067446D01*
X0011091Y0067387D01*
X0011022Y0067331D01*
X0010950Y0067278D01*
X0010876Y0067228D01*
X0010800Y0067182D01*
X0010722Y0067139D01*
X0010642Y0067100D01*
X0010560Y0067064D01*
X0010477Y0067032D01*
X0010393Y0067004D01*
X0010307Y0066979D01*
X0010220Y0066959D01*
X0010133Y0066942D01*
X0010044Y0066929D01*
X0009956Y0066920D01*
X0009867Y0066915D01*
X0009778Y0066914D01*
X0009689Y0066917D01*
X0009600Y0066924D01*
X0009511Y0066935D01*
X0009423Y0066950D01*
X0009336Y0066968D01*
X0009250Y0066991D01*
X0009165Y0067017D01*
X0009081Y0067048D01*
X0008999Y0067082D01*
X0008918Y0067119D01*
X0008839Y0067160D01*
X0008762Y0067205D01*
X0008687Y0067253D01*
X0008614Y0067304D01*
X0008543Y0067358D01*
X0008475Y0067416D01*
X0008410Y0067476D01*
X0008347Y0067540D01*
X0008287Y0067606D01*
X0008230Y0067675D01*
X0008177Y0067746D01*
X0008126Y0067819D01*
X0008079Y0067895D01*
X0008036Y0067972D01*
X0007995Y0068052D01*
X0007959Y0068133D01*
X0007926Y0068216D01*
X0007897Y0068300D01*
X0007871Y0068386D01*
X0007849Y0068472D01*
X0007832Y0068559D01*
X0007818Y0068647D01*
X0007808Y0068736D01*
X0007802Y0068825D01*
X0007800Y0068914D01*
X0007800Y0048914D02*
X0007802Y0049003D01*
X0007808Y0049092D01*
X0007818Y0049181D01*
X0007832Y0049269D01*
X0007849Y0049356D01*
X0007871Y0049442D01*
X0007897Y0049528D01*
X0007926Y0049612D01*
X0007959Y0049695D01*
X0007995Y0049776D01*
X0008036Y0049856D01*
X0008079Y0049933D01*
X0008126Y0050009D01*
X0008177Y0050082D01*
X0008230Y0050153D01*
X0008287Y0050222D01*
X0008347Y0050288D01*
X0008410Y0050352D01*
X0008475Y0050412D01*
X0008543Y0050470D01*
X0008614Y0050524D01*
X0008687Y0050575D01*
X0008762Y0050623D01*
X0008839Y0050668D01*
X0008918Y0050709D01*
X0008999Y0050746D01*
X0009081Y0050780D01*
X0009165Y0050811D01*
X0009250Y0050837D01*
X0009336Y0050860D01*
X0009423Y0050878D01*
X0009511Y0050893D01*
X0009600Y0050904D01*
X0009689Y0050911D01*
X0009778Y0050914D01*
X0009867Y0050913D01*
X0009956Y0050908D01*
X0010044Y0050899D01*
X0010133Y0050886D01*
X0010220Y0050869D01*
X0010307Y0050849D01*
X0010393Y0050824D01*
X0010477Y0050796D01*
X0010560Y0050764D01*
X0010642Y0050728D01*
X0010722Y0050689D01*
X0010800Y0050646D01*
X0010876Y0050600D01*
X0010950Y0050550D01*
X0011022Y0050497D01*
X0011091Y0050441D01*
X0011158Y0050382D01*
X0011222Y0050320D01*
X0011283Y0050256D01*
X0011342Y0050188D01*
X0011397Y0050118D01*
X0011449Y0050046D01*
X0011498Y0049971D01*
X0011543Y0049895D01*
X0011585Y0049816D01*
X0011623Y0049736D01*
X0011658Y0049654D01*
X0011689Y0049570D01*
X0011717Y0049485D01*
X0011740Y0049399D01*
X0011760Y0049312D01*
X0011776Y0049225D01*
X0011788Y0049136D01*
X0011796Y0049048D01*
X0011800Y0048959D01*
X0011800Y0048869D01*
X0011796Y0048780D01*
X0011788Y0048692D01*
X0011776Y0048603D01*
X0011760Y0048516D01*
X0011740Y0048429D01*
X0011717Y0048343D01*
X0011689Y0048258D01*
X0011658Y0048174D01*
X0011623Y0048092D01*
X0011585Y0048012D01*
X0011543Y0047933D01*
X0011498Y0047857D01*
X0011449Y0047782D01*
X0011397Y0047710D01*
X0011342Y0047640D01*
X0011283Y0047572D01*
X0011222Y0047508D01*
X0011158Y0047446D01*
X0011091Y0047387D01*
X0011022Y0047331D01*
X0010950Y0047278D01*
X0010876Y0047228D01*
X0010800Y0047182D01*
X0010722Y0047139D01*
X0010642Y0047100D01*
X0010560Y0047064D01*
X0010477Y0047032D01*
X0010393Y0047004D01*
X0010307Y0046979D01*
X0010220Y0046959D01*
X0010133Y0046942D01*
X0010044Y0046929D01*
X0009956Y0046920D01*
X0009867Y0046915D01*
X0009778Y0046914D01*
X0009689Y0046917D01*
X0009600Y0046924D01*
X0009511Y0046935D01*
X0009423Y0046950D01*
X0009336Y0046968D01*
X0009250Y0046991D01*
X0009165Y0047017D01*
X0009081Y0047048D01*
X0008999Y0047082D01*
X0008918Y0047119D01*
X0008839Y0047160D01*
X0008762Y0047205D01*
X0008687Y0047253D01*
X0008614Y0047304D01*
X0008543Y0047358D01*
X0008475Y0047416D01*
X0008410Y0047476D01*
X0008347Y0047540D01*
X0008287Y0047606D01*
X0008230Y0047675D01*
X0008177Y0047746D01*
X0008126Y0047819D01*
X0008079Y0047895D01*
X0008036Y0047972D01*
X0007995Y0048052D01*
X0007959Y0048133D01*
X0007926Y0048216D01*
X0007897Y0048300D01*
X0007871Y0048386D01*
X0007849Y0048472D01*
X0007832Y0048559D01*
X0007818Y0048647D01*
X0007808Y0048736D01*
X0007802Y0048825D01*
X0007800Y0048914D01*
X0007800Y0028914D02*
X0007802Y0029003D01*
X0007808Y0029092D01*
X0007818Y0029181D01*
X0007832Y0029269D01*
X0007849Y0029356D01*
X0007871Y0029442D01*
X0007897Y0029528D01*
X0007926Y0029612D01*
X0007959Y0029695D01*
X0007995Y0029776D01*
X0008036Y0029856D01*
X0008079Y0029933D01*
X0008126Y0030009D01*
X0008177Y0030082D01*
X0008230Y0030153D01*
X0008287Y0030222D01*
X0008347Y0030288D01*
X0008410Y0030352D01*
X0008475Y0030412D01*
X0008543Y0030470D01*
X0008614Y0030524D01*
X0008687Y0030575D01*
X0008762Y0030623D01*
X0008839Y0030668D01*
X0008918Y0030709D01*
X0008999Y0030746D01*
X0009081Y0030780D01*
X0009165Y0030811D01*
X0009250Y0030837D01*
X0009336Y0030860D01*
X0009423Y0030878D01*
X0009511Y0030893D01*
X0009600Y0030904D01*
X0009689Y0030911D01*
X0009778Y0030914D01*
X0009867Y0030913D01*
X0009956Y0030908D01*
X0010044Y0030899D01*
X0010133Y0030886D01*
X0010220Y0030869D01*
X0010307Y0030849D01*
X0010393Y0030824D01*
X0010477Y0030796D01*
X0010560Y0030764D01*
X0010642Y0030728D01*
X0010722Y0030689D01*
X0010800Y0030646D01*
X0010876Y0030600D01*
X0010950Y0030550D01*
X0011022Y0030497D01*
X0011091Y0030441D01*
X0011158Y0030382D01*
X0011222Y0030320D01*
X0011283Y0030256D01*
X0011342Y0030188D01*
X0011397Y0030118D01*
X0011449Y0030046D01*
X0011498Y0029971D01*
X0011543Y0029895D01*
X0011585Y0029816D01*
X0011623Y0029736D01*
X0011658Y0029654D01*
X0011689Y0029570D01*
X0011717Y0029485D01*
X0011740Y0029399D01*
X0011760Y0029312D01*
X0011776Y0029225D01*
X0011788Y0029136D01*
X0011796Y0029048D01*
X0011800Y0028959D01*
X0011800Y0028869D01*
X0011796Y0028780D01*
X0011788Y0028692D01*
X0011776Y0028603D01*
X0011760Y0028516D01*
X0011740Y0028429D01*
X0011717Y0028343D01*
X0011689Y0028258D01*
X0011658Y0028174D01*
X0011623Y0028092D01*
X0011585Y0028012D01*
X0011543Y0027933D01*
X0011498Y0027857D01*
X0011449Y0027782D01*
X0011397Y0027710D01*
X0011342Y0027640D01*
X0011283Y0027572D01*
X0011222Y0027508D01*
X0011158Y0027446D01*
X0011091Y0027387D01*
X0011022Y0027331D01*
X0010950Y0027278D01*
X0010876Y0027228D01*
X0010800Y0027182D01*
X0010722Y0027139D01*
X0010642Y0027100D01*
X0010560Y0027064D01*
X0010477Y0027032D01*
X0010393Y0027004D01*
X0010307Y0026979D01*
X0010220Y0026959D01*
X0010133Y0026942D01*
X0010044Y0026929D01*
X0009956Y0026920D01*
X0009867Y0026915D01*
X0009778Y0026914D01*
X0009689Y0026917D01*
X0009600Y0026924D01*
X0009511Y0026935D01*
X0009423Y0026950D01*
X0009336Y0026968D01*
X0009250Y0026991D01*
X0009165Y0027017D01*
X0009081Y0027048D01*
X0008999Y0027082D01*
X0008918Y0027119D01*
X0008839Y0027160D01*
X0008762Y0027205D01*
X0008687Y0027253D01*
X0008614Y0027304D01*
X0008543Y0027358D01*
X0008475Y0027416D01*
X0008410Y0027476D01*
X0008347Y0027540D01*
X0008287Y0027606D01*
X0008230Y0027675D01*
X0008177Y0027746D01*
X0008126Y0027819D01*
X0008079Y0027895D01*
X0008036Y0027972D01*
X0007995Y0028052D01*
X0007959Y0028133D01*
X0007926Y0028216D01*
X0007897Y0028300D01*
X0007871Y0028386D01*
X0007849Y0028472D01*
X0007832Y0028559D01*
X0007818Y0028647D01*
X0007808Y0028736D01*
X0007802Y0028825D01*
X0007800Y0028914D01*
X0030500Y0032914D02*
X0030500Y0044914D01*
X0030500Y0052914D02*
X0030500Y0064914D01*
X0030500Y0072914D02*
X0030500Y0078914D01*
X0016000Y0128414D02*
X0016000Y0131414D01*
X0010656Y0122614D02*
X0010383Y0122747D01*
X0010114Y0122887D01*
X0009848Y0123033D01*
X0009585Y0123185D01*
X0009327Y0123344D01*
X0009072Y0123509D01*
X0008822Y0123681D01*
X0008575Y0123858D01*
X0008333Y0124041D01*
X0008096Y0124230D01*
X0007863Y0124425D01*
X0007635Y0124625D01*
X0007412Y0124831D01*
X0007194Y0125042D01*
X0006981Y0125259D01*
X0006774Y0125480D01*
X0006572Y0125707D01*
X0006375Y0125938D01*
X0006184Y0126174D01*
X0005999Y0126415D01*
X0005820Y0126660D01*
X0005647Y0126909D01*
X0005480Y0127162D01*
X0005319Y0127420D01*
X0005165Y0127681D01*
X0005017Y0127946D01*
X0004875Y0128214D01*
X0004740Y0128486D01*
X0004612Y0128761D01*
X0004490Y0129039D01*
X0004375Y0129320D01*
X0004267Y0129604D01*
X0004166Y0129890D01*
X0004071Y0130178D01*
X0003984Y0130469D01*
X0003904Y0130762D01*
X0003831Y0131056D01*
X0003765Y0131352D01*
X0003707Y0131650D01*
X0003655Y0131949D01*
X0003611Y0132250D01*
X0003575Y0132551D01*
X0003545Y0132853D01*
X0003523Y0133156D01*
X0003508Y0133459D01*
X0003501Y0133762D01*
X0003501Y0134066D01*
X0003508Y0134369D01*
X0003523Y0134672D01*
X0003545Y0134975D01*
X0003575Y0135277D01*
X0003611Y0135578D01*
X0003655Y0135879D01*
X0003707Y0136178D01*
X0003765Y0136476D01*
X0003831Y0136772D01*
X0003904Y0137066D01*
X0003984Y0137359D01*
X0004071Y0137650D01*
X0004166Y0137938D01*
X0004267Y0138224D01*
X0004375Y0138508D01*
X0004490Y0138789D01*
X0004612Y0139067D01*
X0004740Y0139342D01*
X0004875Y0139614D01*
X0005017Y0139882D01*
X0005165Y0140147D01*
X0005319Y0140408D01*
X0005480Y0140666D01*
X0005647Y0140919D01*
X0005820Y0141168D01*
X0005999Y0141413D01*
X0006184Y0141654D01*
X0006375Y0141890D01*
X0006572Y0142121D01*
X0006774Y0142348D01*
X0006981Y0142569D01*
X0007194Y0142786D01*
X0007412Y0142997D01*
X0007635Y0143203D01*
X0007863Y0143403D01*
X0008096Y0143598D01*
X0008333Y0143787D01*
X0008575Y0143970D01*
X0008822Y0144147D01*
X0009072Y0144319D01*
X0009327Y0144484D01*
X0009585Y0144643D01*
X0009848Y0144795D01*
X0010114Y0144941D01*
X0010383Y0145081D01*
X0010656Y0145214D01*
X0016000Y0139414D02*
X0016000Y0136914D01*
X0020000Y0136914D01*
X0020000Y0134914D01*
X0012000Y0134914D01*
X0012000Y0136914D01*
X0016000Y0136914D01*
X0017500Y0138914D02*
X0019500Y0138914D01*
X0018500Y0139914D02*
X0018500Y0137914D01*
X0021344Y0145214D02*
X0021617Y0145081D01*
X0021886Y0144941D01*
X0022152Y0144795D01*
X0022415Y0144643D01*
X0022673Y0144484D01*
X0022928Y0144319D01*
X0023178Y0144147D01*
X0023425Y0143970D01*
X0023667Y0143787D01*
X0023904Y0143598D01*
X0024137Y0143403D01*
X0024365Y0143203D01*
X0024588Y0142997D01*
X0024806Y0142786D01*
X0025019Y0142569D01*
X0025226Y0142348D01*
X0025428Y0142121D01*
X0025625Y0141890D01*
X0025816Y0141654D01*
X0026001Y0141413D01*
X0026180Y0141168D01*
X0026353Y0140919D01*
X0026520Y0140666D01*
X0026681Y0140408D01*
X0026835Y0140147D01*
X0026983Y0139882D01*
X0027125Y0139614D01*
X0027260Y0139342D01*
X0027388Y0139067D01*
X0027510Y0138789D01*
X0027625Y0138508D01*
X0027733Y0138224D01*
X0027834Y0137938D01*
X0027929Y0137650D01*
X0028016Y0137359D01*
X0028096Y0137066D01*
X0028169Y0136772D01*
X0028235Y0136476D01*
X0028293Y0136178D01*
X0028345Y0135879D01*
X0028389Y0135578D01*
X0028425Y0135277D01*
X0028455Y0134975D01*
X0028477Y0134672D01*
X0028492Y0134369D01*
X0028499Y0134066D01*
X0028499Y0133762D01*
X0028492Y0133459D01*
X0028477Y0133156D01*
X0028455Y0132853D01*
X0028425Y0132551D01*
X0028389Y0132250D01*
X0028345Y0131949D01*
X0028293Y0131650D01*
X0028235Y0131352D01*
X0028169Y0131056D01*
X0028096Y0130762D01*
X0028016Y0130469D01*
X0027929Y0130178D01*
X0027834Y0129890D01*
X0027733Y0129604D01*
X0027625Y0129320D01*
X0027510Y0129039D01*
X0027388Y0128761D01*
X0027260Y0128486D01*
X0027125Y0128214D01*
X0026983Y0127946D01*
X0026835Y0127681D01*
X0026681Y0127420D01*
X0026520Y0127162D01*
X0026353Y0126909D01*
X0026180Y0126660D01*
X0026001Y0126415D01*
X0025816Y0126174D01*
X0025625Y0125938D01*
X0025428Y0125707D01*
X0025226Y0125480D01*
X0025019Y0125259D01*
X0024806Y0125042D01*
X0024588Y0124831D01*
X0024365Y0124625D01*
X0024137Y0124425D01*
X0023904Y0124230D01*
X0023667Y0124041D01*
X0023425Y0123858D01*
X0023178Y0123681D01*
X0022928Y0123509D01*
X0022673Y0123344D01*
X0022415Y0123185D01*
X0022152Y0123033D01*
X0021886Y0122887D01*
X0021617Y0122747D01*
X0021344Y0122614D01*
X0086000Y0158914D02*
X0096000Y0158914D01*
X0102000Y0158914D01*
X0102002Y0159040D01*
X0102008Y0159165D01*
X0102018Y0159290D01*
X0102032Y0159415D01*
X0102049Y0159540D01*
X0102071Y0159664D01*
X0102096Y0159787D01*
X0102126Y0159909D01*
X0102159Y0160030D01*
X0102196Y0160150D01*
X0102236Y0160269D01*
X0102281Y0160386D01*
X0102329Y0160503D01*
X0102381Y0160617D01*
X0102436Y0160730D01*
X0102495Y0160841D01*
X0102557Y0160950D01*
X0102623Y0161057D01*
X0102692Y0161162D01*
X0102764Y0161265D01*
X0102839Y0161366D01*
X0102918Y0161464D01*
X0103000Y0161559D01*
X0103084Y0161652D01*
X0103172Y0161742D01*
X0103262Y0161830D01*
X0103355Y0161914D01*
X0103450Y0161996D01*
X0103548Y0162075D01*
X0103649Y0162150D01*
X0103752Y0162222D01*
X0103857Y0162291D01*
X0103964Y0162357D01*
X0104073Y0162419D01*
X0104184Y0162478D01*
X0104297Y0162533D01*
X0104411Y0162585D01*
X0104528Y0162633D01*
X0104645Y0162678D01*
X0104764Y0162718D01*
X0104884Y0162755D01*
X0105005Y0162788D01*
X0105127Y0162818D01*
X0105250Y0162843D01*
X0105374Y0162865D01*
X0105499Y0162882D01*
X0105624Y0162896D01*
X0105749Y0162906D01*
X0105874Y0162912D01*
X0106000Y0162914D01*
X0106126Y0162912D01*
X0106251Y0162906D01*
X0106376Y0162896D01*
X0106501Y0162882D01*
X0106626Y0162865D01*
X0106750Y0162843D01*
X0106873Y0162818D01*
X0106995Y0162788D01*
X0107116Y0162755D01*
X0107236Y0162718D01*
X0107355Y0162678D01*
X0107472Y0162633D01*
X0107589Y0162585D01*
X0107703Y0162533D01*
X0107816Y0162478D01*
X0107927Y0162419D01*
X0108036Y0162357D01*
X0108143Y0162291D01*
X0108248Y0162222D01*
X0108351Y0162150D01*
X0108452Y0162075D01*
X0108550Y0161996D01*
X0108645Y0161914D01*
X0108738Y0161830D01*
X0108828Y0161742D01*
X0108916Y0161652D01*
X0109000Y0161559D01*
X0109082Y0161464D01*
X0109161Y0161366D01*
X0109236Y0161265D01*
X0109308Y0161162D01*
X0109377Y0161057D01*
X0109443Y0160950D01*
X0109505Y0160841D01*
X0109564Y0160730D01*
X0109619Y0160617D01*
X0109671Y0160503D01*
X0109719Y0160386D01*
X0109764Y0160269D01*
X0109804Y0160150D01*
X0109841Y0160030D01*
X0109874Y0159909D01*
X0109904Y0159787D01*
X0109929Y0159664D01*
X0109951Y0159540D01*
X0109968Y0159415D01*
X0109982Y0159290D01*
X0109992Y0159165D01*
X0109998Y0159040D01*
X0110000Y0158914D01*
X0116000Y0158914D01*
X0116000Y0198914D01*
X0126000Y0198914D01*
X0126000Y0158914D01*
X0116000Y0158914D01*
X0112500Y0143414D02*
X0111000Y0143414D01*
X0110500Y0142914D01*
X0091500Y0142914D01*
X0091000Y0143414D01*
X0089500Y0143414D01*
X0089440Y0143412D01*
X0089379Y0143407D01*
X0089320Y0143398D01*
X0089261Y0143385D01*
X0089202Y0143369D01*
X0089145Y0143349D01*
X0089090Y0143326D01*
X0089035Y0143299D01*
X0088983Y0143270D01*
X0088932Y0143237D01*
X0088883Y0143201D01*
X0088837Y0143163D01*
X0088793Y0143121D01*
X0088751Y0143077D01*
X0088713Y0143031D01*
X0088677Y0142982D01*
X0088644Y0142931D01*
X0088615Y0142879D01*
X0088588Y0142824D01*
X0088565Y0142769D01*
X0088545Y0142712D01*
X0088529Y0142653D01*
X0088516Y0142594D01*
X0088507Y0142535D01*
X0088502Y0142474D01*
X0088500Y0142414D01*
X0088500Y0135414D01*
X0088502Y0135354D01*
X0088507Y0135293D01*
X0088516Y0135234D01*
X0088529Y0135175D01*
X0088545Y0135116D01*
X0088565Y0135059D01*
X0088588Y0135004D01*
X0088615Y0134949D01*
X0088644Y0134897D01*
X0088677Y0134846D01*
X0088713Y0134797D01*
X0088751Y0134751D01*
X0088793Y0134707D01*
X0088837Y0134665D01*
X0088883Y0134627D01*
X0088932Y0134591D01*
X0088983Y0134558D01*
X0089035Y0134529D01*
X0089090Y0134502D01*
X0089145Y0134479D01*
X0089202Y0134459D01*
X0089261Y0134443D01*
X0089320Y0134430D01*
X0089379Y0134421D01*
X0089440Y0134416D01*
X0089500Y0134414D01*
X0091000Y0134414D01*
X0091500Y0134914D01*
X0110500Y0134914D01*
X0111000Y0134414D01*
X0112500Y0134414D01*
X0112560Y0134416D01*
X0112621Y0134421D01*
X0112680Y0134430D01*
X0112739Y0134443D01*
X0112798Y0134459D01*
X0112855Y0134479D01*
X0112910Y0134502D01*
X0112965Y0134529D01*
X0113017Y0134558D01*
X0113068Y0134591D01*
X0113117Y0134627D01*
X0113163Y0134665D01*
X0113207Y0134707D01*
X0113249Y0134751D01*
X0113287Y0134797D01*
X0113323Y0134846D01*
X0113356Y0134897D01*
X0113385Y0134949D01*
X0113412Y0135004D01*
X0113435Y0135059D01*
X0113455Y0135116D01*
X0113471Y0135175D01*
X0113484Y0135234D01*
X0113493Y0135293D01*
X0113498Y0135354D01*
X0113500Y0135414D01*
X0113500Y0142414D01*
X0113498Y0142474D01*
X0113493Y0142535D01*
X0113484Y0142594D01*
X0113471Y0142653D01*
X0113455Y0142712D01*
X0113435Y0142769D01*
X0113412Y0142824D01*
X0113385Y0142879D01*
X0113356Y0142931D01*
X0113323Y0142982D01*
X0113287Y0143031D01*
X0113249Y0143077D01*
X0113207Y0143121D01*
X0113163Y0143163D01*
X0113117Y0143201D01*
X0113068Y0143237D01*
X0113017Y0143270D01*
X0112965Y0143299D01*
X0112910Y0143326D01*
X0112855Y0143349D01*
X0112798Y0143369D01*
X0112739Y0143385D01*
X0112680Y0143398D01*
X0112621Y0143407D01*
X0112560Y0143412D01*
X0112500Y0143414D01*
X0096000Y0158914D02*
X0096000Y0198914D01*
X0116000Y0198914D01*
X0131500Y0203914D02*
X0131500Y0205414D01*
X0131502Y0205474D01*
X0131507Y0205535D01*
X0131516Y0205594D01*
X0131529Y0205653D01*
X0131545Y0205712D01*
X0131565Y0205769D01*
X0131588Y0205824D01*
X0131615Y0205879D01*
X0131644Y0205931D01*
X0131677Y0205982D01*
X0131713Y0206031D01*
X0131751Y0206077D01*
X0131793Y0206121D01*
X0131837Y0206163D01*
X0131883Y0206201D01*
X0131932Y0206237D01*
X0131983Y0206270D01*
X0132035Y0206299D01*
X0132090Y0206326D01*
X0132145Y0206349D01*
X0132202Y0206369D01*
X0132261Y0206385D01*
X0132320Y0206398D01*
X0132379Y0206407D01*
X0132440Y0206412D01*
X0132500Y0206414D01*
X0139500Y0206414D01*
X0139560Y0206412D01*
X0139621Y0206407D01*
X0139680Y0206398D01*
X0139739Y0206385D01*
X0139798Y0206369D01*
X0139855Y0206349D01*
X0139910Y0206326D01*
X0139965Y0206299D01*
X0140017Y0206270D01*
X0140068Y0206237D01*
X0140117Y0206201D01*
X0140163Y0206163D01*
X0140207Y0206121D01*
X0140249Y0206077D01*
X0140287Y0206031D01*
X0140323Y0205982D01*
X0140356Y0205931D01*
X0140385Y0205879D01*
X0140412Y0205824D01*
X0140435Y0205769D01*
X0140455Y0205712D01*
X0140471Y0205653D01*
X0140484Y0205594D01*
X0140493Y0205535D01*
X0140498Y0205474D01*
X0140500Y0205414D01*
X0140500Y0203914D01*
X0140000Y0203414D01*
X0140000Y0184414D01*
X0140500Y0183914D01*
X0140500Y0182414D01*
X0140498Y0182354D01*
X0140493Y0182293D01*
X0140484Y0182234D01*
X0140471Y0182175D01*
X0140455Y0182116D01*
X0140435Y0182059D01*
X0140412Y0182004D01*
X0140385Y0181949D01*
X0140356Y0181897D01*
X0140323Y0181846D01*
X0140287Y0181797D01*
X0140249Y0181751D01*
X0140207Y0181707D01*
X0140163Y0181665D01*
X0140117Y0181627D01*
X0140068Y0181591D01*
X0140017Y0181558D01*
X0139965Y0181529D01*
X0139910Y0181502D01*
X0139855Y0181479D01*
X0139798Y0181459D01*
X0139739Y0181443D01*
X0139680Y0181430D01*
X0139621Y0181421D01*
X0139560Y0181416D01*
X0139500Y0181414D01*
X0132500Y0181414D01*
X0132440Y0181416D01*
X0132379Y0181421D01*
X0132320Y0181430D01*
X0132261Y0181443D01*
X0132202Y0181459D01*
X0132145Y0181479D01*
X0132090Y0181502D01*
X0132035Y0181529D01*
X0131983Y0181558D01*
X0131932Y0181591D01*
X0131883Y0181627D01*
X0131837Y0181665D01*
X0131793Y0181707D01*
X0131751Y0181751D01*
X0131713Y0181797D01*
X0131677Y0181846D01*
X0131644Y0181897D01*
X0131615Y0181949D01*
X0131588Y0182004D01*
X0131565Y0182059D01*
X0131545Y0182116D01*
X0131529Y0182175D01*
X0131516Y0182234D01*
X0131507Y0182293D01*
X0131502Y0182354D01*
X0131500Y0182414D01*
X0131500Y0183914D01*
X0132000Y0184414D01*
X0132000Y0203414D01*
X0131500Y0203914D01*
X0108500Y0215414D02*
X0108500Y0222414D01*
X0108498Y0222474D01*
X0108493Y0222535D01*
X0108484Y0222594D01*
X0108471Y0222653D01*
X0108455Y0222712D01*
X0108435Y0222769D01*
X0108412Y0222824D01*
X0108385Y0222879D01*
X0108356Y0222931D01*
X0108323Y0222982D01*
X0108287Y0223031D01*
X0108249Y0223077D01*
X0108207Y0223121D01*
X0108163Y0223163D01*
X0108117Y0223201D01*
X0108068Y0223237D01*
X0108017Y0223270D01*
X0107965Y0223299D01*
X0107910Y0223326D01*
X0107855Y0223349D01*
X0107798Y0223369D01*
X0107739Y0223385D01*
X0107680Y0223398D01*
X0107621Y0223407D01*
X0107560Y0223412D01*
X0107500Y0223414D01*
X0106000Y0223414D01*
X0105500Y0222914D01*
X0086500Y0222914D01*
X0086000Y0223414D01*
X0084500Y0223414D01*
X0084440Y0223412D01*
X0084379Y0223407D01*
X0084320Y0223398D01*
X0084261Y0223385D01*
X0084202Y0223369D01*
X0084145Y0223349D01*
X0084090Y0223326D01*
X0084035Y0223299D01*
X0083983Y0223270D01*
X0083932Y0223237D01*
X0083883Y0223201D01*
X0083837Y0223163D01*
X0083793Y0223121D01*
X0083751Y0223077D01*
X0083713Y0223031D01*
X0083677Y0222982D01*
X0083644Y0222931D01*
X0083615Y0222879D01*
X0083588Y0222824D01*
X0083565Y0222769D01*
X0083545Y0222712D01*
X0083529Y0222653D01*
X0083516Y0222594D01*
X0083507Y0222535D01*
X0083502Y0222474D01*
X0083500Y0222414D01*
X0083500Y0215414D01*
X0083502Y0215354D01*
X0083507Y0215293D01*
X0083516Y0215234D01*
X0083529Y0215175D01*
X0083545Y0215116D01*
X0083565Y0215059D01*
X0083588Y0215004D01*
X0083615Y0214949D01*
X0083644Y0214897D01*
X0083677Y0214846D01*
X0083713Y0214797D01*
X0083751Y0214751D01*
X0083793Y0214707D01*
X0083837Y0214665D01*
X0083883Y0214627D01*
X0083932Y0214591D01*
X0083983Y0214558D01*
X0084035Y0214529D01*
X0084090Y0214502D01*
X0084145Y0214479D01*
X0084202Y0214459D01*
X0084261Y0214443D01*
X0084320Y0214430D01*
X0084379Y0214421D01*
X0084440Y0214416D01*
X0084500Y0214414D01*
X0086000Y0214414D01*
X0086500Y0214914D01*
X0105500Y0214914D01*
X0106000Y0214414D01*
X0107500Y0214414D01*
X0107560Y0214416D01*
X0107621Y0214421D01*
X0107680Y0214430D01*
X0107739Y0214443D01*
X0107798Y0214459D01*
X0107855Y0214479D01*
X0107910Y0214502D01*
X0107965Y0214529D01*
X0108017Y0214558D01*
X0108068Y0214591D01*
X0108117Y0214627D01*
X0108163Y0214665D01*
X0108207Y0214707D01*
X0108249Y0214751D01*
X0108287Y0214797D01*
X0108323Y0214846D01*
X0108356Y0214897D01*
X0108385Y0214949D01*
X0108412Y0215004D01*
X0108435Y0215059D01*
X0108455Y0215116D01*
X0108471Y0215175D01*
X0108484Y0215234D01*
X0108493Y0215293D01*
X0108498Y0215354D01*
X0108500Y0215414D01*
X0096000Y0198914D02*
X0086000Y0198914D01*
X0086000Y0158914D01*
X0045000Y0198914D02*
X0035500Y0198914D01*
X0035500Y0204914D01*
X0035500Y0198914D02*
X0009500Y0198914D01*
X0008500Y0198914D01*
X0008500Y0258914D01*
X0009500Y0258914D01*
X0035500Y0258914D01*
X0045000Y0258914D01*
X0045000Y0198914D01*
X0035500Y0212914D02*
X0035500Y0224914D01*
X0035500Y0232914D02*
X0035500Y0244914D01*
X0035500Y0252914D02*
X0035500Y0258914D01*
X0012800Y0248914D02*
X0012802Y0249003D01*
X0012808Y0249092D01*
X0012818Y0249181D01*
X0012832Y0249269D01*
X0012849Y0249356D01*
X0012871Y0249442D01*
X0012897Y0249528D01*
X0012926Y0249612D01*
X0012959Y0249695D01*
X0012995Y0249776D01*
X0013036Y0249856D01*
X0013079Y0249933D01*
X0013126Y0250009D01*
X0013177Y0250082D01*
X0013230Y0250153D01*
X0013287Y0250222D01*
X0013347Y0250288D01*
X0013410Y0250352D01*
X0013475Y0250412D01*
X0013543Y0250470D01*
X0013614Y0250524D01*
X0013687Y0250575D01*
X0013762Y0250623D01*
X0013839Y0250668D01*
X0013918Y0250709D01*
X0013999Y0250746D01*
X0014081Y0250780D01*
X0014165Y0250811D01*
X0014250Y0250837D01*
X0014336Y0250860D01*
X0014423Y0250878D01*
X0014511Y0250893D01*
X0014600Y0250904D01*
X0014689Y0250911D01*
X0014778Y0250914D01*
X0014867Y0250913D01*
X0014956Y0250908D01*
X0015044Y0250899D01*
X0015133Y0250886D01*
X0015220Y0250869D01*
X0015307Y0250849D01*
X0015393Y0250824D01*
X0015477Y0250796D01*
X0015560Y0250764D01*
X0015642Y0250728D01*
X0015722Y0250689D01*
X0015800Y0250646D01*
X0015876Y0250600D01*
X0015950Y0250550D01*
X0016022Y0250497D01*
X0016091Y0250441D01*
X0016158Y0250382D01*
X0016222Y0250320D01*
X0016283Y0250256D01*
X0016342Y0250188D01*
X0016397Y0250118D01*
X0016449Y0250046D01*
X0016498Y0249971D01*
X0016543Y0249895D01*
X0016585Y0249816D01*
X0016623Y0249736D01*
X0016658Y0249654D01*
X0016689Y0249570D01*
X0016717Y0249485D01*
X0016740Y0249399D01*
X0016760Y0249312D01*
X0016776Y0249225D01*
X0016788Y0249136D01*
X0016796Y0249048D01*
X0016800Y0248959D01*
X0016800Y0248869D01*
X0016796Y0248780D01*
X0016788Y0248692D01*
X0016776Y0248603D01*
X0016760Y0248516D01*
X0016740Y0248429D01*
X0016717Y0248343D01*
X0016689Y0248258D01*
X0016658Y0248174D01*
X0016623Y0248092D01*
X0016585Y0248012D01*
X0016543Y0247933D01*
X0016498Y0247857D01*
X0016449Y0247782D01*
X0016397Y0247710D01*
X0016342Y0247640D01*
X0016283Y0247572D01*
X0016222Y0247508D01*
X0016158Y0247446D01*
X0016091Y0247387D01*
X0016022Y0247331D01*
X0015950Y0247278D01*
X0015876Y0247228D01*
X0015800Y0247182D01*
X0015722Y0247139D01*
X0015642Y0247100D01*
X0015560Y0247064D01*
X0015477Y0247032D01*
X0015393Y0247004D01*
X0015307Y0246979D01*
X0015220Y0246959D01*
X0015133Y0246942D01*
X0015044Y0246929D01*
X0014956Y0246920D01*
X0014867Y0246915D01*
X0014778Y0246914D01*
X0014689Y0246917D01*
X0014600Y0246924D01*
X0014511Y0246935D01*
X0014423Y0246950D01*
X0014336Y0246968D01*
X0014250Y0246991D01*
X0014165Y0247017D01*
X0014081Y0247048D01*
X0013999Y0247082D01*
X0013918Y0247119D01*
X0013839Y0247160D01*
X0013762Y0247205D01*
X0013687Y0247253D01*
X0013614Y0247304D01*
X0013543Y0247358D01*
X0013475Y0247416D01*
X0013410Y0247476D01*
X0013347Y0247540D01*
X0013287Y0247606D01*
X0013230Y0247675D01*
X0013177Y0247746D01*
X0013126Y0247819D01*
X0013079Y0247895D01*
X0013036Y0247972D01*
X0012995Y0248052D01*
X0012959Y0248133D01*
X0012926Y0248216D01*
X0012897Y0248300D01*
X0012871Y0248386D01*
X0012849Y0248472D01*
X0012832Y0248559D01*
X0012818Y0248647D01*
X0012808Y0248736D01*
X0012802Y0248825D01*
X0012800Y0248914D01*
X0009500Y0258914D02*
X0009500Y0198914D01*
X0012800Y0208914D02*
X0012802Y0209003D01*
X0012808Y0209092D01*
X0012818Y0209181D01*
X0012832Y0209269D01*
X0012849Y0209356D01*
X0012871Y0209442D01*
X0012897Y0209528D01*
X0012926Y0209612D01*
X0012959Y0209695D01*
X0012995Y0209776D01*
X0013036Y0209856D01*
X0013079Y0209933D01*
X0013126Y0210009D01*
X0013177Y0210082D01*
X0013230Y0210153D01*
X0013287Y0210222D01*
X0013347Y0210288D01*
X0013410Y0210352D01*
X0013475Y0210412D01*
X0013543Y0210470D01*
X0013614Y0210524D01*
X0013687Y0210575D01*
X0013762Y0210623D01*
X0013839Y0210668D01*
X0013918Y0210709D01*
X0013999Y0210746D01*
X0014081Y0210780D01*
X0014165Y0210811D01*
X0014250Y0210837D01*
X0014336Y0210860D01*
X0014423Y0210878D01*
X0014511Y0210893D01*
X0014600Y0210904D01*
X0014689Y0210911D01*
X0014778Y0210914D01*
X0014867Y0210913D01*
X0014956Y0210908D01*
X0015044Y0210899D01*
X0015133Y0210886D01*
X0015220Y0210869D01*
X0015307Y0210849D01*
X0015393Y0210824D01*
X0015477Y0210796D01*
X0015560Y0210764D01*
X0015642Y0210728D01*
X0015722Y0210689D01*
X0015800Y0210646D01*
X0015876Y0210600D01*
X0015950Y0210550D01*
X0016022Y0210497D01*
X0016091Y0210441D01*
X0016158Y0210382D01*
X0016222Y0210320D01*
X0016283Y0210256D01*
X0016342Y0210188D01*
X0016397Y0210118D01*
X0016449Y0210046D01*
X0016498Y0209971D01*
X0016543Y0209895D01*
X0016585Y0209816D01*
X0016623Y0209736D01*
X0016658Y0209654D01*
X0016689Y0209570D01*
X0016717Y0209485D01*
X0016740Y0209399D01*
X0016760Y0209312D01*
X0016776Y0209225D01*
X0016788Y0209136D01*
X0016796Y0209048D01*
X0016800Y0208959D01*
X0016800Y0208869D01*
X0016796Y0208780D01*
X0016788Y0208692D01*
X0016776Y0208603D01*
X0016760Y0208516D01*
X0016740Y0208429D01*
X0016717Y0208343D01*
X0016689Y0208258D01*
X0016658Y0208174D01*
X0016623Y0208092D01*
X0016585Y0208012D01*
X0016543Y0207933D01*
X0016498Y0207857D01*
X0016449Y0207782D01*
X0016397Y0207710D01*
X0016342Y0207640D01*
X0016283Y0207572D01*
X0016222Y0207508D01*
X0016158Y0207446D01*
X0016091Y0207387D01*
X0016022Y0207331D01*
X0015950Y0207278D01*
X0015876Y0207228D01*
X0015800Y0207182D01*
X0015722Y0207139D01*
X0015642Y0207100D01*
X0015560Y0207064D01*
X0015477Y0207032D01*
X0015393Y0207004D01*
X0015307Y0206979D01*
X0015220Y0206959D01*
X0015133Y0206942D01*
X0015044Y0206929D01*
X0014956Y0206920D01*
X0014867Y0206915D01*
X0014778Y0206914D01*
X0014689Y0206917D01*
X0014600Y0206924D01*
X0014511Y0206935D01*
X0014423Y0206950D01*
X0014336Y0206968D01*
X0014250Y0206991D01*
X0014165Y0207017D01*
X0014081Y0207048D01*
X0013999Y0207082D01*
X0013918Y0207119D01*
X0013839Y0207160D01*
X0013762Y0207205D01*
X0013687Y0207253D01*
X0013614Y0207304D01*
X0013543Y0207358D01*
X0013475Y0207416D01*
X0013410Y0207476D01*
X0013347Y0207540D01*
X0013287Y0207606D01*
X0013230Y0207675D01*
X0013177Y0207746D01*
X0013126Y0207819D01*
X0013079Y0207895D01*
X0013036Y0207972D01*
X0012995Y0208052D01*
X0012959Y0208133D01*
X0012926Y0208216D01*
X0012897Y0208300D01*
X0012871Y0208386D01*
X0012849Y0208472D01*
X0012832Y0208559D01*
X0012818Y0208647D01*
X0012808Y0208736D01*
X0012802Y0208825D01*
X0012800Y0208914D01*
X0012800Y0228914D02*
X0012802Y0229003D01*
X0012808Y0229092D01*
X0012818Y0229181D01*
X0012832Y0229269D01*
X0012849Y0229356D01*
X0012871Y0229442D01*
X0012897Y0229528D01*
X0012926Y0229612D01*
X0012959Y0229695D01*
X0012995Y0229776D01*
X0013036Y0229856D01*
X0013079Y0229933D01*
X0013126Y0230009D01*
X0013177Y0230082D01*
X0013230Y0230153D01*
X0013287Y0230222D01*
X0013347Y0230288D01*
X0013410Y0230352D01*
X0013475Y0230412D01*
X0013543Y0230470D01*
X0013614Y0230524D01*
X0013687Y0230575D01*
X0013762Y0230623D01*
X0013839Y0230668D01*
X0013918Y0230709D01*
X0013999Y0230746D01*
X0014081Y0230780D01*
X0014165Y0230811D01*
X0014250Y0230837D01*
X0014336Y0230860D01*
X0014423Y0230878D01*
X0014511Y0230893D01*
X0014600Y0230904D01*
X0014689Y0230911D01*
X0014778Y0230914D01*
X0014867Y0230913D01*
X0014956Y0230908D01*
X0015044Y0230899D01*
X0015133Y0230886D01*
X0015220Y0230869D01*
X0015307Y0230849D01*
X0015393Y0230824D01*
X0015477Y0230796D01*
X0015560Y0230764D01*
X0015642Y0230728D01*
X0015722Y0230689D01*
X0015800Y0230646D01*
X0015876Y0230600D01*
X0015950Y0230550D01*
X0016022Y0230497D01*
X0016091Y0230441D01*
X0016158Y0230382D01*
X0016222Y0230320D01*
X0016283Y0230256D01*
X0016342Y0230188D01*
X0016397Y0230118D01*
X0016449Y0230046D01*
X0016498Y0229971D01*
X0016543Y0229895D01*
X0016585Y0229816D01*
X0016623Y0229736D01*
X0016658Y0229654D01*
X0016689Y0229570D01*
X0016717Y0229485D01*
X0016740Y0229399D01*
X0016760Y0229312D01*
X0016776Y0229225D01*
X0016788Y0229136D01*
X0016796Y0229048D01*
X0016800Y0228959D01*
X0016800Y0228869D01*
X0016796Y0228780D01*
X0016788Y0228692D01*
X0016776Y0228603D01*
X0016760Y0228516D01*
X0016740Y0228429D01*
X0016717Y0228343D01*
X0016689Y0228258D01*
X0016658Y0228174D01*
X0016623Y0228092D01*
X0016585Y0228012D01*
X0016543Y0227933D01*
X0016498Y0227857D01*
X0016449Y0227782D01*
X0016397Y0227710D01*
X0016342Y0227640D01*
X0016283Y0227572D01*
X0016222Y0227508D01*
X0016158Y0227446D01*
X0016091Y0227387D01*
X0016022Y0227331D01*
X0015950Y0227278D01*
X0015876Y0227228D01*
X0015800Y0227182D01*
X0015722Y0227139D01*
X0015642Y0227100D01*
X0015560Y0227064D01*
X0015477Y0227032D01*
X0015393Y0227004D01*
X0015307Y0226979D01*
X0015220Y0226959D01*
X0015133Y0226942D01*
X0015044Y0226929D01*
X0014956Y0226920D01*
X0014867Y0226915D01*
X0014778Y0226914D01*
X0014689Y0226917D01*
X0014600Y0226924D01*
X0014511Y0226935D01*
X0014423Y0226950D01*
X0014336Y0226968D01*
X0014250Y0226991D01*
X0014165Y0227017D01*
X0014081Y0227048D01*
X0013999Y0227082D01*
X0013918Y0227119D01*
X0013839Y0227160D01*
X0013762Y0227205D01*
X0013687Y0227253D01*
X0013614Y0227304D01*
X0013543Y0227358D01*
X0013475Y0227416D01*
X0013410Y0227476D01*
X0013347Y0227540D01*
X0013287Y0227606D01*
X0013230Y0227675D01*
X0013177Y0227746D01*
X0013126Y0227819D01*
X0013079Y0227895D01*
X0013036Y0227972D01*
X0012995Y0228052D01*
X0012959Y0228133D01*
X0012926Y0228216D01*
X0012897Y0228300D01*
X0012871Y0228386D01*
X0012849Y0228472D01*
X0012832Y0228559D01*
X0012818Y0228647D01*
X0012808Y0228736D01*
X0012802Y0228825D01*
X0012800Y0228914D01*
X0056500Y0233914D02*
X0056500Y0235414D01*
X0056502Y0235474D01*
X0056507Y0235535D01*
X0056516Y0235594D01*
X0056529Y0235653D01*
X0056545Y0235712D01*
X0056565Y0235769D01*
X0056588Y0235824D01*
X0056615Y0235879D01*
X0056644Y0235931D01*
X0056677Y0235982D01*
X0056713Y0236031D01*
X0056751Y0236077D01*
X0056793Y0236121D01*
X0056837Y0236163D01*
X0056883Y0236201D01*
X0056932Y0236237D01*
X0056983Y0236270D01*
X0057035Y0236299D01*
X0057090Y0236326D01*
X0057145Y0236349D01*
X0057202Y0236369D01*
X0057261Y0236385D01*
X0057320Y0236398D01*
X0057379Y0236407D01*
X0057440Y0236412D01*
X0057500Y0236414D01*
X0064500Y0236414D01*
X0064560Y0236412D01*
X0064621Y0236407D01*
X0064680Y0236398D01*
X0064739Y0236385D01*
X0064798Y0236369D01*
X0064855Y0236349D01*
X0064910Y0236326D01*
X0064965Y0236299D01*
X0065017Y0236270D01*
X0065068Y0236237D01*
X0065117Y0236201D01*
X0065163Y0236163D01*
X0065207Y0236121D01*
X0065249Y0236077D01*
X0065287Y0236031D01*
X0065323Y0235982D01*
X0065356Y0235931D01*
X0065385Y0235879D01*
X0065412Y0235824D01*
X0065435Y0235769D01*
X0065455Y0235712D01*
X0065471Y0235653D01*
X0065484Y0235594D01*
X0065493Y0235535D01*
X0065498Y0235474D01*
X0065500Y0235414D01*
X0065500Y0233914D01*
X0065000Y0233414D01*
X0065000Y0214414D01*
X0065500Y0213914D01*
X0065500Y0212414D01*
X0065498Y0212354D01*
X0065493Y0212293D01*
X0065484Y0212234D01*
X0065471Y0212175D01*
X0065455Y0212116D01*
X0065435Y0212059D01*
X0065412Y0212004D01*
X0065385Y0211949D01*
X0065356Y0211897D01*
X0065323Y0211846D01*
X0065287Y0211797D01*
X0065249Y0211751D01*
X0065207Y0211707D01*
X0065163Y0211665D01*
X0065117Y0211627D01*
X0065068Y0211591D01*
X0065017Y0211558D01*
X0064965Y0211529D01*
X0064910Y0211502D01*
X0064855Y0211479D01*
X0064798Y0211459D01*
X0064739Y0211443D01*
X0064680Y0211430D01*
X0064621Y0211421D01*
X0064560Y0211416D01*
X0064500Y0211414D01*
X0057500Y0211414D01*
X0057440Y0211416D01*
X0057379Y0211421D01*
X0057320Y0211430D01*
X0057261Y0211443D01*
X0057202Y0211459D01*
X0057145Y0211479D01*
X0057090Y0211502D01*
X0057035Y0211529D01*
X0056983Y0211558D01*
X0056932Y0211591D01*
X0056883Y0211627D01*
X0056837Y0211665D01*
X0056793Y0211707D01*
X0056751Y0211751D01*
X0056713Y0211797D01*
X0056677Y0211846D01*
X0056644Y0211897D01*
X0056615Y0211949D01*
X0056588Y0212004D01*
X0056565Y0212059D01*
X0056545Y0212116D01*
X0056529Y0212175D01*
X0056516Y0212234D01*
X0056507Y0212293D01*
X0056502Y0212354D01*
X0056500Y0212414D01*
X0056500Y0213914D01*
X0057000Y0214414D01*
X0057000Y0233414D01*
X0056500Y0233914D01*
X0153500Y0232414D02*
X0153500Y0225414D01*
X0153502Y0225354D01*
X0153507Y0225293D01*
X0153516Y0225234D01*
X0153529Y0225175D01*
X0153545Y0225116D01*
X0153565Y0225059D01*
X0153588Y0225004D01*
X0153615Y0224949D01*
X0153644Y0224897D01*
X0153677Y0224846D01*
X0153713Y0224797D01*
X0153751Y0224751D01*
X0153793Y0224707D01*
X0153837Y0224665D01*
X0153883Y0224627D01*
X0153932Y0224591D01*
X0153983Y0224558D01*
X0154035Y0224529D01*
X0154090Y0224502D01*
X0154145Y0224479D01*
X0154202Y0224459D01*
X0154261Y0224443D01*
X0154320Y0224430D01*
X0154379Y0224421D01*
X0154440Y0224416D01*
X0154500Y0224414D01*
X0156000Y0224414D01*
X0156500Y0224914D01*
X0175500Y0224914D01*
X0176000Y0224414D01*
X0177500Y0224414D01*
X0177560Y0224416D01*
X0177621Y0224421D01*
X0177680Y0224430D01*
X0177739Y0224443D01*
X0177798Y0224459D01*
X0177855Y0224479D01*
X0177910Y0224502D01*
X0177965Y0224529D01*
X0178017Y0224558D01*
X0178068Y0224591D01*
X0178117Y0224627D01*
X0178163Y0224665D01*
X0178207Y0224707D01*
X0178249Y0224751D01*
X0178287Y0224797D01*
X0178323Y0224846D01*
X0178356Y0224897D01*
X0178385Y0224949D01*
X0178412Y0225004D01*
X0178435Y0225059D01*
X0178455Y0225116D01*
X0178471Y0225175D01*
X0178484Y0225234D01*
X0178493Y0225293D01*
X0178498Y0225354D01*
X0178500Y0225414D01*
X0178500Y0232414D01*
X0178498Y0232474D01*
X0178493Y0232535D01*
X0178484Y0232594D01*
X0178471Y0232653D01*
X0178455Y0232712D01*
X0178435Y0232769D01*
X0178412Y0232824D01*
X0178385Y0232879D01*
X0178356Y0232931D01*
X0178323Y0232982D01*
X0178287Y0233031D01*
X0178249Y0233077D01*
X0178207Y0233121D01*
X0178163Y0233163D01*
X0178117Y0233201D01*
X0178068Y0233237D01*
X0178017Y0233270D01*
X0177965Y0233299D01*
X0177910Y0233326D01*
X0177855Y0233349D01*
X0177798Y0233369D01*
X0177739Y0233385D01*
X0177680Y0233398D01*
X0177621Y0233407D01*
X0177560Y0233412D01*
X0177500Y0233414D01*
X0176000Y0233414D01*
X0175500Y0232914D01*
X0156500Y0232914D01*
X0156000Y0233414D01*
X0154500Y0233414D01*
X0154440Y0233412D01*
X0154379Y0233407D01*
X0154320Y0233398D01*
X0154261Y0233385D01*
X0154202Y0233369D01*
X0154145Y0233349D01*
X0154090Y0233326D01*
X0154035Y0233299D01*
X0153983Y0233270D01*
X0153932Y0233237D01*
X0153883Y0233201D01*
X0153837Y0233163D01*
X0153793Y0233121D01*
X0153751Y0233077D01*
X0153713Y0233031D01*
X0153677Y0232982D01*
X0153644Y0232931D01*
X0153615Y0232879D01*
X0153588Y0232824D01*
X0153565Y0232769D01*
X0153545Y0232712D01*
X0153529Y0232653D01*
X0153516Y0232594D01*
X0153507Y0232535D01*
X0153502Y0232474D01*
X0153500Y0232414D01*
X0166000Y0204414D02*
X0166000Y0201414D01*
X0171344Y0210214D02*
X0171617Y0210081D01*
X0171886Y0209941D01*
X0172152Y0209795D01*
X0172415Y0209643D01*
X0172673Y0209484D01*
X0172928Y0209319D01*
X0173178Y0209147D01*
X0173425Y0208970D01*
X0173667Y0208787D01*
X0173904Y0208598D01*
X0174137Y0208403D01*
X0174365Y0208203D01*
X0174588Y0207997D01*
X0174806Y0207786D01*
X0175019Y0207569D01*
X0175226Y0207348D01*
X0175428Y0207121D01*
X0175625Y0206890D01*
X0175816Y0206654D01*
X0176001Y0206413D01*
X0176180Y0206168D01*
X0176353Y0205919D01*
X0176520Y0205666D01*
X0176681Y0205408D01*
X0176835Y0205147D01*
X0176983Y0204882D01*
X0177125Y0204614D01*
X0177260Y0204342D01*
X0177388Y0204067D01*
X0177510Y0203789D01*
X0177625Y0203508D01*
X0177733Y0203224D01*
X0177834Y0202938D01*
X0177929Y0202650D01*
X0178016Y0202359D01*
X0178096Y0202066D01*
X0178169Y0201772D01*
X0178235Y0201476D01*
X0178293Y0201178D01*
X0178345Y0200879D01*
X0178389Y0200578D01*
X0178425Y0200277D01*
X0178455Y0199975D01*
X0178477Y0199672D01*
X0178492Y0199369D01*
X0178499Y0199066D01*
X0178499Y0198762D01*
X0178492Y0198459D01*
X0178477Y0198156D01*
X0178455Y0197853D01*
X0178425Y0197551D01*
X0178389Y0197250D01*
X0178345Y0196949D01*
X0178293Y0196650D01*
X0178235Y0196352D01*
X0178169Y0196056D01*
X0178096Y0195762D01*
X0178016Y0195469D01*
X0177929Y0195178D01*
X0177834Y0194890D01*
X0177733Y0194604D01*
X0177625Y0194320D01*
X0177510Y0194039D01*
X0177388Y0193761D01*
X0177260Y0193486D01*
X0177125Y0193214D01*
X0176983Y0192946D01*
X0176835Y0192681D01*
X0176681Y0192420D01*
X0176520Y0192162D01*
X0176353Y0191909D01*
X0176180Y0191660D01*
X0176001Y0191415D01*
X0175816Y0191174D01*
X0175625Y0190938D01*
X0175428Y0190707D01*
X0175226Y0190480D01*
X0175019Y0190259D01*
X0174806Y0190042D01*
X0174588Y0189831D01*
X0174365Y0189625D01*
X0174137Y0189425D01*
X0173904Y0189230D01*
X0173667Y0189041D01*
X0173425Y0188858D01*
X0173178Y0188681D01*
X0172928Y0188509D01*
X0172673Y0188344D01*
X0172415Y0188185D01*
X0172152Y0188033D01*
X0171886Y0187887D01*
X0171617Y0187747D01*
X0171344Y0187614D01*
X0166000Y0193414D02*
X0166000Y0195914D01*
X0162000Y0195914D01*
X0162000Y0197914D01*
X0170000Y0197914D01*
X0170000Y0195914D01*
X0166000Y0195914D01*
X0164500Y0193914D02*
X0162500Y0193914D01*
X0163500Y0192914D02*
X0163500Y0194914D01*
X0160656Y0187614D02*
X0160383Y0187747D01*
X0160114Y0187887D01*
X0159848Y0188033D01*
X0159585Y0188185D01*
X0159327Y0188344D01*
X0159072Y0188509D01*
X0158822Y0188681D01*
X0158575Y0188858D01*
X0158333Y0189041D01*
X0158096Y0189230D01*
X0157863Y0189425D01*
X0157635Y0189625D01*
X0157412Y0189831D01*
X0157194Y0190042D01*
X0156981Y0190259D01*
X0156774Y0190480D01*
X0156572Y0190707D01*
X0156375Y0190938D01*
X0156184Y0191174D01*
X0155999Y0191415D01*
X0155820Y0191660D01*
X0155647Y0191909D01*
X0155480Y0192162D01*
X0155319Y0192420D01*
X0155165Y0192681D01*
X0155017Y0192946D01*
X0154875Y0193214D01*
X0154740Y0193486D01*
X0154612Y0193761D01*
X0154490Y0194039D01*
X0154375Y0194320D01*
X0154267Y0194604D01*
X0154166Y0194890D01*
X0154071Y0195178D01*
X0153984Y0195469D01*
X0153904Y0195762D01*
X0153831Y0196056D01*
X0153765Y0196352D01*
X0153707Y0196650D01*
X0153655Y0196949D01*
X0153611Y0197250D01*
X0153575Y0197551D01*
X0153545Y0197853D01*
X0153523Y0198156D01*
X0153508Y0198459D01*
X0153501Y0198762D01*
X0153501Y0199066D01*
X0153508Y0199369D01*
X0153523Y0199672D01*
X0153545Y0199975D01*
X0153575Y0200277D01*
X0153611Y0200578D01*
X0153655Y0200879D01*
X0153707Y0201178D01*
X0153765Y0201476D01*
X0153831Y0201772D01*
X0153904Y0202066D01*
X0153984Y0202359D01*
X0154071Y0202650D01*
X0154166Y0202938D01*
X0154267Y0203224D01*
X0154375Y0203508D01*
X0154490Y0203789D01*
X0154612Y0204067D01*
X0154740Y0204342D01*
X0154875Y0204614D01*
X0155017Y0204882D01*
X0155165Y0205147D01*
X0155319Y0205408D01*
X0155480Y0205666D01*
X0155647Y0205919D01*
X0155820Y0206168D01*
X0155999Y0206413D01*
X0156184Y0206654D01*
X0156375Y0206890D01*
X0156572Y0207121D01*
X0156774Y0207348D01*
X0156981Y0207569D01*
X0157194Y0207786D01*
X0157412Y0207997D01*
X0157635Y0208203D01*
X0157863Y0208403D01*
X0158096Y0208598D01*
X0158333Y0208787D01*
X0158575Y0208970D01*
X0158822Y0209147D01*
X0159072Y0209319D01*
X0159327Y0209484D01*
X0159585Y0209643D01*
X0159848Y0209795D01*
X0160114Y0209941D01*
X0160383Y0210081D01*
X0160656Y0210214D01*
X0191500Y0210414D02*
X0191500Y0208914D01*
X0192000Y0208414D01*
X0192000Y0189414D01*
X0191500Y0188914D01*
X0191500Y0187414D01*
X0191502Y0187354D01*
X0191507Y0187293D01*
X0191516Y0187234D01*
X0191529Y0187175D01*
X0191545Y0187116D01*
X0191565Y0187059D01*
X0191588Y0187004D01*
X0191615Y0186949D01*
X0191644Y0186897D01*
X0191677Y0186846D01*
X0191713Y0186797D01*
X0191751Y0186751D01*
X0191793Y0186707D01*
X0191837Y0186665D01*
X0191883Y0186627D01*
X0191932Y0186591D01*
X0191983Y0186558D01*
X0192035Y0186529D01*
X0192090Y0186502D01*
X0192145Y0186479D01*
X0192202Y0186459D01*
X0192261Y0186443D01*
X0192320Y0186430D01*
X0192379Y0186421D01*
X0192440Y0186416D01*
X0192500Y0186414D01*
X0199500Y0186414D01*
X0199560Y0186416D01*
X0199621Y0186421D01*
X0199680Y0186430D01*
X0199739Y0186443D01*
X0199798Y0186459D01*
X0199855Y0186479D01*
X0199910Y0186502D01*
X0199965Y0186529D01*
X0200017Y0186558D01*
X0200068Y0186591D01*
X0200117Y0186627D01*
X0200163Y0186665D01*
X0200207Y0186707D01*
X0200249Y0186751D01*
X0200287Y0186797D01*
X0200323Y0186846D01*
X0200356Y0186897D01*
X0200385Y0186949D01*
X0200412Y0187004D01*
X0200435Y0187059D01*
X0200455Y0187116D01*
X0200471Y0187175D01*
X0200484Y0187234D01*
X0200493Y0187293D01*
X0200498Y0187354D01*
X0200500Y0187414D01*
X0200500Y0188914D01*
X0200000Y0189414D01*
X0200000Y0208414D01*
X0200500Y0208914D01*
X0200500Y0210414D01*
X0200498Y0210474D01*
X0200493Y0210535D01*
X0200484Y0210594D01*
X0200471Y0210653D01*
X0200455Y0210712D01*
X0200435Y0210769D01*
X0200412Y0210824D01*
X0200385Y0210879D01*
X0200356Y0210931D01*
X0200323Y0210982D01*
X0200287Y0211031D01*
X0200249Y0211077D01*
X0200207Y0211121D01*
X0200163Y0211163D01*
X0200117Y0211201D01*
X0200068Y0211237D01*
X0200017Y0211270D01*
X0199965Y0211299D01*
X0199910Y0211326D01*
X0199855Y0211349D01*
X0199798Y0211369D01*
X0199739Y0211385D01*
X0199680Y0211398D01*
X0199621Y0211407D01*
X0199560Y0211412D01*
X0199500Y0211414D01*
X0192500Y0211414D01*
X0192440Y0211412D01*
X0192379Y0211407D01*
X0192320Y0211398D01*
X0192261Y0211385D01*
X0192202Y0211369D01*
X0192145Y0211349D01*
X0192090Y0211326D01*
X0192035Y0211299D01*
X0191983Y0211270D01*
X0191932Y0211237D01*
X0191883Y0211201D01*
X0191837Y0211163D01*
X0191793Y0211121D01*
X0191751Y0211077D01*
X0191713Y0211031D01*
X0191677Y0210982D01*
X0191644Y0210931D01*
X0191615Y0210879D01*
X0191588Y0210824D01*
X0191565Y0210769D01*
X0191545Y0210712D01*
X0191529Y0210653D01*
X0191516Y0210594D01*
X0191507Y0210535D01*
X0191502Y0210474D01*
X0191500Y0210414D01*
X0226000Y0227414D02*
X0226000Y0234914D01*
X0226126Y0234916D01*
X0226251Y0234922D01*
X0226376Y0234932D01*
X0226501Y0234946D01*
X0226626Y0234963D01*
X0226750Y0234985D01*
X0226873Y0235010D01*
X0226995Y0235040D01*
X0227116Y0235073D01*
X0227236Y0235110D01*
X0227355Y0235150D01*
X0227472Y0235195D01*
X0227589Y0235243D01*
X0227703Y0235295D01*
X0227816Y0235350D01*
X0227927Y0235409D01*
X0228036Y0235471D01*
X0228143Y0235537D01*
X0228248Y0235606D01*
X0228351Y0235678D01*
X0228452Y0235753D01*
X0228550Y0235832D01*
X0228645Y0235914D01*
X0228738Y0235998D01*
X0228828Y0236086D01*
X0228916Y0236176D01*
X0229000Y0236269D01*
X0229082Y0236364D01*
X0229161Y0236462D01*
X0229236Y0236563D01*
X0229308Y0236666D01*
X0229377Y0236771D01*
X0229443Y0236878D01*
X0229505Y0236987D01*
X0229564Y0237098D01*
X0229619Y0237211D01*
X0229671Y0237325D01*
X0229719Y0237442D01*
X0229764Y0237559D01*
X0229804Y0237678D01*
X0229841Y0237798D01*
X0229874Y0237919D01*
X0229904Y0238041D01*
X0229929Y0238164D01*
X0229951Y0238288D01*
X0229968Y0238413D01*
X0229982Y0238538D01*
X0229992Y0238663D01*
X0229998Y0238788D01*
X0230000Y0238914D01*
X0229998Y0239040D01*
X0229992Y0239165D01*
X0229982Y0239290D01*
X0229968Y0239415D01*
X0229951Y0239540D01*
X0229929Y0239664D01*
X0229904Y0239787D01*
X0229874Y0239909D01*
X0229841Y0240030D01*
X0229804Y0240150D01*
X0229764Y0240269D01*
X0229719Y0240386D01*
X0229671Y0240503D01*
X0229619Y0240617D01*
X0229564Y0240730D01*
X0229505Y0240841D01*
X0229443Y0240950D01*
X0229377Y0241057D01*
X0229308Y0241162D01*
X0229236Y0241265D01*
X0229161Y0241366D01*
X0229082Y0241464D01*
X0229000Y0241559D01*
X0228916Y0241652D01*
X0228828Y0241742D01*
X0228738Y0241830D01*
X0228645Y0241914D01*
X0228550Y0241996D01*
X0228452Y0242075D01*
X0228351Y0242150D01*
X0228248Y0242222D01*
X0228143Y0242291D01*
X0228036Y0242357D01*
X0227927Y0242419D01*
X0227816Y0242478D01*
X0227703Y0242533D01*
X0227589Y0242585D01*
X0227472Y0242633D01*
X0227355Y0242678D01*
X0227236Y0242718D01*
X0227116Y0242755D01*
X0226995Y0242788D01*
X0226873Y0242818D01*
X0226750Y0242843D01*
X0226626Y0242865D01*
X0226501Y0242882D01*
X0226376Y0242896D01*
X0226251Y0242906D01*
X0226126Y0242912D01*
X0226000Y0242914D01*
X0226000Y0250414D01*
X0266000Y0250414D01*
X0266000Y0227414D01*
X0226000Y0227414D01*
X0252000Y0187914D02*
X0252000Y0179914D01*
X0254000Y0179914D01*
X0254000Y0183914D01*
X0254000Y0187914D01*
X0252000Y0187914D01*
X0262300Y0189258D02*
X0262167Y0189531D01*
X0262027Y0189800D01*
X0261881Y0190066D01*
X0261729Y0190329D01*
X0261570Y0190587D01*
X0261405Y0190842D01*
X0261233Y0191092D01*
X0261056Y0191339D01*
X0260873Y0191581D01*
X0260684Y0191818D01*
X0260489Y0192051D01*
X0260289Y0192279D01*
X0260083Y0192502D01*
X0259872Y0192720D01*
X0259655Y0192933D01*
X0259434Y0193140D01*
X0259207Y0193342D01*
X0258976Y0193539D01*
X0258740Y0193730D01*
X0258499Y0193915D01*
X0258254Y0194094D01*
X0258005Y0194267D01*
X0257752Y0194434D01*
X0257494Y0194595D01*
X0257233Y0194749D01*
X0256968Y0194897D01*
X0256700Y0195039D01*
X0256428Y0195174D01*
X0256153Y0195302D01*
X0255875Y0195424D01*
X0255594Y0195539D01*
X0255310Y0195647D01*
X0255024Y0195748D01*
X0254736Y0195843D01*
X0254445Y0195930D01*
X0254152Y0196010D01*
X0253858Y0196083D01*
X0253562Y0196149D01*
X0253264Y0196207D01*
X0252965Y0196259D01*
X0252664Y0196303D01*
X0252363Y0196339D01*
X0252061Y0196369D01*
X0251758Y0196391D01*
X0251455Y0196406D01*
X0251152Y0196413D01*
X0250848Y0196413D01*
X0250545Y0196406D01*
X0250242Y0196391D01*
X0249939Y0196369D01*
X0249637Y0196339D01*
X0249336Y0196303D01*
X0249035Y0196259D01*
X0248736Y0196207D01*
X0248438Y0196149D01*
X0248142Y0196083D01*
X0247848Y0196010D01*
X0247555Y0195930D01*
X0247264Y0195843D01*
X0246976Y0195748D01*
X0246690Y0195647D01*
X0246406Y0195539D01*
X0246125Y0195424D01*
X0245847Y0195302D01*
X0245572Y0195174D01*
X0245300Y0195039D01*
X0245032Y0194897D01*
X0244767Y0194749D01*
X0244506Y0194595D01*
X0244248Y0194434D01*
X0243995Y0194267D01*
X0243746Y0194094D01*
X0243501Y0193915D01*
X0243260Y0193730D01*
X0243024Y0193539D01*
X0242793Y0193342D01*
X0242566Y0193140D01*
X0242345Y0192933D01*
X0242128Y0192720D01*
X0241917Y0192502D01*
X0241711Y0192279D01*
X0241511Y0192051D01*
X0241316Y0191818D01*
X0241127Y0191581D01*
X0240944Y0191339D01*
X0240767Y0191092D01*
X0240595Y0190842D01*
X0240430Y0190587D01*
X0240271Y0190329D01*
X0240119Y0190066D01*
X0239973Y0189800D01*
X0239833Y0189531D01*
X0239700Y0189258D01*
X0245500Y0183914D02*
X0248500Y0183914D01*
X0239700Y0178570D02*
X0239833Y0178297D01*
X0239973Y0178028D01*
X0240119Y0177762D01*
X0240271Y0177499D01*
X0240430Y0177241D01*
X0240595Y0176986D01*
X0240767Y0176736D01*
X0240944Y0176489D01*
X0241127Y0176247D01*
X0241316Y0176010D01*
X0241511Y0175777D01*
X0241711Y0175549D01*
X0241917Y0175326D01*
X0242128Y0175108D01*
X0242345Y0174895D01*
X0242566Y0174688D01*
X0242793Y0174486D01*
X0243024Y0174289D01*
X0243260Y0174098D01*
X0243501Y0173913D01*
X0243746Y0173734D01*
X0243995Y0173561D01*
X0244248Y0173394D01*
X0244506Y0173233D01*
X0244767Y0173079D01*
X0245032Y0172931D01*
X0245300Y0172789D01*
X0245572Y0172654D01*
X0245847Y0172526D01*
X0246125Y0172404D01*
X0246406Y0172289D01*
X0246690Y0172181D01*
X0246976Y0172080D01*
X0247264Y0171985D01*
X0247555Y0171898D01*
X0247848Y0171818D01*
X0248142Y0171745D01*
X0248438Y0171679D01*
X0248736Y0171621D01*
X0249035Y0171569D01*
X0249336Y0171525D01*
X0249637Y0171489D01*
X0249939Y0171459D01*
X0250242Y0171437D01*
X0250545Y0171422D01*
X0250848Y0171415D01*
X0251152Y0171415D01*
X0251455Y0171422D01*
X0251758Y0171437D01*
X0252061Y0171459D01*
X0252363Y0171489D01*
X0252664Y0171525D01*
X0252965Y0171569D01*
X0253264Y0171621D01*
X0253562Y0171679D01*
X0253858Y0171745D01*
X0254152Y0171818D01*
X0254445Y0171898D01*
X0254736Y0171985D01*
X0255024Y0172080D01*
X0255310Y0172181D01*
X0255594Y0172289D01*
X0255875Y0172404D01*
X0256153Y0172526D01*
X0256428Y0172654D01*
X0256700Y0172789D01*
X0256968Y0172931D01*
X0257233Y0173079D01*
X0257494Y0173233D01*
X0257752Y0173394D01*
X0258005Y0173561D01*
X0258254Y0173734D01*
X0258499Y0173913D01*
X0258740Y0174098D01*
X0258976Y0174289D01*
X0259207Y0174486D01*
X0259434Y0174688D01*
X0259655Y0174895D01*
X0259872Y0175108D01*
X0260083Y0175326D01*
X0260289Y0175549D01*
X0260489Y0175777D01*
X0260684Y0176010D01*
X0260873Y0176247D01*
X0261056Y0176489D01*
X0261233Y0176736D01*
X0261405Y0176986D01*
X0261570Y0177241D01*
X0261729Y0177499D01*
X0261881Y0177762D01*
X0262027Y0178028D01*
X0262167Y0178297D01*
X0262300Y0178570D01*
X0257000Y0181414D02*
X0255000Y0181414D01*
X0256000Y0182414D02*
X0256000Y0180414D01*
X0256500Y0183914D02*
X0254000Y0183914D01*
X0271500Y0183914D02*
X0272000Y0184414D01*
X0272000Y0203414D01*
X0271500Y0203914D01*
X0271500Y0205414D01*
X0271502Y0205474D01*
X0271507Y0205535D01*
X0271516Y0205594D01*
X0271529Y0205653D01*
X0271545Y0205712D01*
X0271565Y0205769D01*
X0271588Y0205824D01*
X0271615Y0205879D01*
X0271644Y0205931D01*
X0271677Y0205982D01*
X0271713Y0206031D01*
X0271751Y0206077D01*
X0271793Y0206121D01*
X0271837Y0206163D01*
X0271883Y0206201D01*
X0271932Y0206237D01*
X0271983Y0206270D01*
X0272035Y0206299D01*
X0272090Y0206326D01*
X0272145Y0206349D01*
X0272202Y0206369D01*
X0272261Y0206385D01*
X0272320Y0206398D01*
X0272379Y0206407D01*
X0272440Y0206412D01*
X0272500Y0206414D01*
X0279500Y0206414D01*
X0279560Y0206412D01*
X0279621Y0206407D01*
X0279680Y0206398D01*
X0279739Y0206385D01*
X0279798Y0206369D01*
X0279855Y0206349D01*
X0279910Y0206326D01*
X0279965Y0206299D01*
X0280017Y0206270D01*
X0280068Y0206237D01*
X0280117Y0206201D01*
X0280163Y0206163D01*
X0280207Y0206121D01*
X0280249Y0206077D01*
X0280287Y0206031D01*
X0280323Y0205982D01*
X0280356Y0205931D01*
X0280385Y0205879D01*
X0280412Y0205824D01*
X0280435Y0205769D01*
X0280455Y0205712D01*
X0280471Y0205653D01*
X0280484Y0205594D01*
X0280493Y0205535D01*
X0280498Y0205474D01*
X0280500Y0205414D01*
X0280500Y0203914D01*
X0280000Y0203414D01*
X0280000Y0184414D01*
X0280500Y0183914D01*
X0280500Y0182414D01*
X0280498Y0182354D01*
X0280493Y0182293D01*
X0280484Y0182234D01*
X0280471Y0182175D01*
X0280455Y0182116D01*
X0280435Y0182059D01*
X0280412Y0182004D01*
X0280385Y0181949D01*
X0280356Y0181897D01*
X0280323Y0181846D01*
X0280287Y0181797D01*
X0280249Y0181751D01*
X0280207Y0181707D01*
X0280163Y0181665D01*
X0280117Y0181627D01*
X0280068Y0181591D01*
X0280017Y0181558D01*
X0279965Y0181529D01*
X0279910Y0181502D01*
X0279855Y0181479D01*
X0279798Y0181459D01*
X0279739Y0181443D01*
X0279680Y0181430D01*
X0279621Y0181421D01*
X0279560Y0181416D01*
X0279500Y0181414D01*
X0272500Y0181414D01*
X0272440Y0181416D01*
X0272379Y0181421D01*
X0272320Y0181430D01*
X0272261Y0181443D01*
X0272202Y0181459D01*
X0272145Y0181479D01*
X0272090Y0181502D01*
X0272035Y0181529D01*
X0271983Y0181558D01*
X0271932Y0181591D01*
X0271883Y0181627D01*
X0271837Y0181665D01*
X0271793Y0181707D01*
X0271751Y0181751D01*
X0271713Y0181797D01*
X0271677Y0181846D01*
X0271644Y0181897D01*
X0271615Y0181949D01*
X0271588Y0182004D01*
X0271565Y0182059D01*
X0271545Y0182116D01*
X0271529Y0182175D01*
X0271516Y0182234D01*
X0271507Y0182293D01*
X0271502Y0182354D01*
X0271500Y0182414D01*
X0271500Y0183914D01*
X0286500Y0175414D02*
X0286500Y0173914D01*
X0287000Y0173414D01*
X0287000Y0154414D01*
X0286500Y0153914D01*
X0286500Y0152414D01*
X0286502Y0152354D01*
X0286507Y0152293D01*
X0286516Y0152234D01*
X0286529Y0152175D01*
X0286545Y0152116D01*
X0286565Y0152059D01*
X0286588Y0152004D01*
X0286615Y0151949D01*
X0286644Y0151897D01*
X0286677Y0151846D01*
X0286713Y0151797D01*
X0286751Y0151751D01*
X0286793Y0151707D01*
X0286837Y0151665D01*
X0286883Y0151627D01*
X0286932Y0151591D01*
X0286983Y0151558D01*
X0287035Y0151529D01*
X0287090Y0151502D01*
X0287145Y0151479D01*
X0287202Y0151459D01*
X0287261Y0151443D01*
X0287320Y0151430D01*
X0287379Y0151421D01*
X0287440Y0151416D01*
X0287500Y0151414D01*
X0294500Y0151414D01*
X0294560Y0151416D01*
X0294621Y0151421D01*
X0294680Y0151430D01*
X0294739Y0151443D01*
X0294798Y0151459D01*
X0294855Y0151479D01*
X0294910Y0151502D01*
X0294965Y0151529D01*
X0295017Y0151558D01*
X0295068Y0151591D01*
X0295117Y0151627D01*
X0295163Y0151665D01*
X0295207Y0151707D01*
X0295249Y0151751D01*
X0295287Y0151797D01*
X0295323Y0151846D01*
X0295356Y0151897D01*
X0295385Y0151949D01*
X0295412Y0152004D01*
X0295435Y0152059D01*
X0295455Y0152116D01*
X0295471Y0152175D01*
X0295484Y0152234D01*
X0295493Y0152293D01*
X0295498Y0152354D01*
X0295500Y0152414D01*
X0295500Y0153914D01*
X0295000Y0154414D01*
X0295000Y0173414D01*
X0295500Y0173914D01*
X0295500Y0175414D01*
X0295498Y0175474D01*
X0295493Y0175535D01*
X0295484Y0175594D01*
X0295471Y0175653D01*
X0295455Y0175712D01*
X0295435Y0175769D01*
X0295412Y0175824D01*
X0295385Y0175879D01*
X0295356Y0175931D01*
X0295323Y0175982D01*
X0295287Y0176031D01*
X0295249Y0176077D01*
X0295207Y0176121D01*
X0295163Y0176163D01*
X0295117Y0176201D01*
X0295068Y0176237D01*
X0295017Y0176270D01*
X0294965Y0176299D01*
X0294910Y0176326D01*
X0294855Y0176349D01*
X0294798Y0176369D01*
X0294739Y0176385D01*
X0294680Y0176398D01*
X0294621Y0176407D01*
X0294560Y0176412D01*
X0294500Y0176414D01*
X0287500Y0176414D01*
X0287440Y0176412D01*
X0287379Y0176407D01*
X0287320Y0176398D01*
X0287261Y0176385D01*
X0287202Y0176369D01*
X0287145Y0176349D01*
X0287090Y0176326D01*
X0287035Y0176299D01*
X0286983Y0176270D01*
X0286932Y0176237D01*
X0286883Y0176201D01*
X0286837Y0176163D01*
X0286793Y0176121D01*
X0286751Y0176077D01*
X0286713Y0176031D01*
X0286677Y0175982D01*
X0286644Y0175931D01*
X0286615Y0175879D01*
X0286588Y0175824D01*
X0286565Y0175769D01*
X0286545Y0175712D01*
X0286529Y0175653D01*
X0286516Y0175594D01*
X0286507Y0175535D01*
X0286502Y0175474D01*
X0286500Y0175414D01*
X0303500Y0193914D02*
X0304500Y0193914D01*
X0330500Y0193914D01*
X0330500Y0187414D01*
X0330500Y0193914D02*
X0340000Y0193914D01*
X0340000Y0153914D01*
X0330500Y0153914D01*
X0330500Y0160414D01*
X0330500Y0153914D02*
X0304500Y0153914D01*
X0303500Y0153914D01*
X0303500Y0193914D01*
X0304500Y0193914D02*
X0304500Y0153914D01*
X0307800Y0163914D02*
X0307802Y0164003D01*
X0307808Y0164092D01*
X0307818Y0164181D01*
X0307832Y0164269D01*
X0307849Y0164356D01*
X0307871Y0164442D01*
X0307897Y0164528D01*
X0307926Y0164612D01*
X0307959Y0164695D01*
X0307995Y0164776D01*
X0308036Y0164856D01*
X0308079Y0164933D01*
X0308126Y0165009D01*
X0308177Y0165082D01*
X0308230Y0165153D01*
X0308287Y0165222D01*
X0308347Y0165288D01*
X0308410Y0165352D01*
X0308475Y0165412D01*
X0308543Y0165470D01*
X0308614Y0165524D01*
X0308687Y0165575D01*
X0308762Y0165623D01*
X0308839Y0165668D01*
X0308918Y0165709D01*
X0308999Y0165746D01*
X0309081Y0165780D01*
X0309165Y0165811D01*
X0309250Y0165837D01*
X0309336Y0165860D01*
X0309423Y0165878D01*
X0309511Y0165893D01*
X0309600Y0165904D01*
X0309689Y0165911D01*
X0309778Y0165914D01*
X0309867Y0165913D01*
X0309956Y0165908D01*
X0310044Y0165899D01*
X0310133Y0165886D01*
X0310220Y0165869D01*
X0310307Y0165849D01*
X0310393Y0165824D01*
X0310477Y0165796D01*
X0310560Y0165764D01*
X0310642Y0165728D01*
X0310722Y0165689D01*
X0310800Y0165646D01*
X0310876Y0165600D01*
X0310950Y0165550D01*
X0311022Y0165497D01*
X0311091Y0165441D01*
X0311158Y0165382D01*
X0311222Y0165320D01*
X0311283Y0165256D01*
X0311342Y0165188D01*
X0311397Y0165118D01*
X0311449Y0165046D01*
X0311498Y0164971D01*
X0311543Y0164895D01*
X0311585Y0164816D01*
X0311623Y0164736D01*
X0311658Y0164654D01*
X0311689Y0164570D01*
X0311717Y0164485D01*
X0311740Y0164399D01*
X0311760Y0164312D01*
X0311776Y0164225D01*
X0311788Y0164136D01*
X0311796Y0164048D01*
X0311800Y0163959D01*
X0311800Y0163869D01*
X0311796Y0163780D01*
X0311788Y0163692D01*
X0311776Y0163603D01*
X0311760Y0163516D01*
X0311740Y0163429D01*
X0311717Y0163343D01*
X0311689Y0163258D01*
X0311658Y0163174D01*
X0311623Y0163092D01*
X0311585Y0163012D01*
X0311543Y0162933D01*
X0311498Y0162857D01*
X0311449Y0162782D01*
X0311397Y0162710D01*
X0311342Y0162640D01*
X0311283Y0162572D01*
X0311222Y0162508D01*
X0311158Y0162446D01*
X0311091Y0162387D01*
X0311022Y0162331D01*
X0310950Y0162278D01*
X0310876Y0162228D01*
X0310800Y0162182D01*
X0310722Y0162139D01*
X0310642Y0162100D01*
X0310560Y0162064D01*
X0310477Y0162032D01*
X0310393Y0162004D01*
X0310307Y0161979D01*
X0310220Y0161959D01*
X0310133Y0161942D01*
X0310044Y0161929D01*
X0309956Y0161920D01*
X0309867Y0161915D01*
X0309778Y0161914D01*
X0309689Y0161917D01*
X0309600Y0161924D01*
X0309511Y0161935D01*
X0309423Y0161950D01*
X0309336Y0161968D01*
X0309250Y0161991D01*
X0309165Y0162017D01*
X0309081Y0162048D01*
X0308999Y0162082D01*
X0308918Y0162119D01*
X0308839Y0162160D01*
X0308762Y0162205D01*
X0308687Y0162253D01*
X0308614Y0162304D01*
X0308543Y0162358D01*
X0308475Y0162416D01*
X0308410Y0162476D01*
X0308347Y0162540D01*
X0308287Y0162606D01*
X0308230Y0162675D01*
X0308177Y0162746D01*
X0308126Y0162819D01*
X0308079Y0162895D01*
X0308036Y0162972D01*
X0307995Y0163052D01*
X0307959Y0163133D01*
X0307926Y0163216D01*
X0307897Y0163300D01*
X0307871Y0163386D01*
X0307849Y0163472D01*
X0307832Y0163559D01*
X0307818Y0163647D01*
X0307808Y0163736D01*
X0307802Y0163825D01*
X0307800Y0163914D01*
X0307800Y0183914D02*
X0307802Y0184003D01*
X0307808Y0184092D01*
X0307818Y0184181D01*
X0307832Y0184269D01*
X0307849Y0184356D01*
X0307871Y0184442D01*
X0307897Y0184528D01*
X0307926Y0184612D01*
X0307959Y0184695D01*
X0307995Y0184776D01*
X0308036Y0184856D01*
X0308079Y0184933D01*
X0308126Y0185009D01*
X0308177Y0185082D01*
X0308230Y0185153D01*
X0308287Y0185222D01*
X0308347Y0185288D01*
X0308410Y0185352D01*
X0308475Y0185412D01*
X0308543Y0185470D01*
X0308614Y0185524D01*
X0308687Y0185575D01*
X0308762Y0185623D01*
X0308839Y0185668D01*
X0308918Y0185709D01*
X0308999Y0185746D01*
X0309081Y0185780D01*
X0309165Y0185811D01*
X0309250Y0185837D01*
X0309336Y0185860D01*
X0309423Y0185878D01*
X0309511Y0185893D01*
X0309600Y0185904D01*
X0309689Y0185911D01*
X0309778Y0185914D01*
X0309867Y0185913D01*
X0309956Y0185908D01*
X0310044Y0185899D01*
X0310133Y0185886D01*
X0310220Y0185869D01*
X0310307Y0185849D01*
X0310393Y0185824D01*
X0310477Y0185796D01*
X0310560Y0185764D01*
X0310642Y0185728D01*
X0310722Y0185689D01*
X0310800Y0185646D01*
X0310876Y0185600D01*
X0310950Y0185550D01*
X0311022Y0185497D01*
X0311091Y0185441D01*
X0311158Y0185382D01*
X0311222Y0185320D01*
X0311283Y0185256D01*
X0311342Y0185188D01*
X0311397Y0185118D01*
X0311449Y0185046D01*
X0311498Y0184971D01*
X0311543Y0184895D01*
X0311585Y0184816D01*
X0311623Y0184736D01*
X0311658Y0184654D01*
X0311689Y0184570D01*
X0311717Y0184485D01*
X0311740Y0184399D01*
X0311760Y0184312D01*
X0311776Y0184225D01*
X0311788Y0184136D01*
X0311796Y0184048D01*
X0311800Y0183959D01*
X0311800Y0183869D01*
X0311796Y0183780D01*
X0311788Y0183692D01*
X0311776Y0183603D01*
X0311760Y0183516D01*
X0311740Y0183429D01*
X0311717Y0183343D01*
X0311689Y0183258D01*
X0311658Y0183174D01*
X0311623Y0183092D01*
X0311585Y0183012D01*
X0311543Y0182933D01*
X0311498Y0182857D01*
X0311449Y0182782D01*
X0311397Y0182710D01*
X0311342Y0182640D01*
X0311283Y0182572D01*
X0311222Y0182508D01*
X0311158Y0182446D01*
X0311091Y0182387D01*
X0311022Y0182331D01*
X0310950Y0182278D01*
X0310876Y0182228D01*
X0310800Y0182182D01*
X0310722Y0182139D01*
X0310642Y0182100D01*
X0310560Y0182064D01*
X0310477Y0182032D01*
X0310393Y0182004D01*
X0310307Y0181979D01*
X0310220Y0181959D01*
X0310133Y0181942D01*
X0310044Y0181929D01*
X0309956Y0181920D01*
X0309867Y0181915D01*
X0309778Y0181914D01*
X0309689Y0181917D01*
X0309600Y0181924D01*
X0309511Y0181935D01*
X0309423Y0181950D01*
X0309336Y0181968D01*
X0309250Y0181991D01*
X0309165Y0182017D01*
X0309081Y0182048D01*
X0308999Y0182082D01*
X0308918Y0182119D01*
X0308839Y0182160D01*
X0308762Y0182205D01*
X0308687Y0182253D01*
X0308614Y0182304D01*
X0308543Y0182358D01*
X0308475Y0182416D01*
X0308410Y0182476D01*
X0308347Y0182540D01*
X0308287Y0182606D01*
X0308230Y0182675D01*
X0308177Y0182746D01*
X0308126Y0182819D01*
X0308079Y0182895D01*
X0308036Y0182972D01*
X0307995Y0183052D01*
X0307959Y0183133D01*
X0307926Y0183216D01*
X0307897Y0183300D01*
X0307871Y0183386D01*
X0307849Y0183472D01*
X0307832Y0183559D01*
X0307818Y0183647D01*
X0307808Y0183736D01*
X0307802Y0183825D01*
X0307800Y0183914D01*
X0330500Y0180414D02*
X0330500Y0167414D01*
X0314500Y0111414D02*
X0307500Y0111414D01*
X0307440Y0111412D01*
X0307379Y0111407D01*
X0307320Y0111398D01*
X0307261Y0111385D01*
X0307202Y0111369D01*
X0307145Y0111349D01*
X0307090Y0111326D01*
X0307035Y0111299D01*
X0306983Y0111270D01*
X0306932Y0111237D01*
X0306883Y0111201D01*
X0306837Y0111163D01*
X0306793Y0111121D01*
X0306751Y0111077D01*
X0306713Y0111031D01*
X0306677Y0110982D01*
X0306644Y0110931D01*
X0306615Y0110879D01*
X0306588Y0110824D01*
X0306565Y0110769D01*
X0306545Y0110712D01*
X0306529Y0110653D01*
X0306516Y0110594D01*
X0306507Y0110535D01*
X0306502Y0110474D01*
X0306500Y0110414D01*
X0306500Y0108914D01*
X0307000Y0108414D01*
X0307000Y0089414D01*
X0306500Y0088914D01*
X0306500Y0087414D01*
X0306502Y0087354D01*
X0306507Y0087293D01*
X0306516Y0087234D01*
X0306529Y0087175D01*
X0306545Y0087116D01*
X0306565Y0087059D01*
X0306588Y0087004D01*
X0306615Y0086949D01*
X0306644Y0086897D01*
X0306677Y0086846D01*
X0306713Y0086797D01*
X0306751Y0086751D01*
X0306793Y0086707D01*
X0306837Y0086665D01*
X0306883Y0086627D01*
X0306932Y0086591D01*
X0306983Y0086558D01*
X0307035Y0086529D01*
X0307090Y0086502D01*
X0307145Y0086479D01*
X0307202Y0086459D01*
X0307261Y0086443D01*
X0307320Y0086430D01*
X0307379Y0086421D01*
X0307440Y0086416D01*
X0307500Y0086414D01*
X0314500Y0086414D01*
X0314560Y0086416D01*
X0314621Y0086421D01*
X0314680Y0086430D01*
X0314739Y0086443D01*
X0314798Y0086459D01*
X0314855Y0086479D01*
X0314910Y0086502D01*
X0314965Y0086529D01*
X0315017Y0086558D01*
X0315068Y0086591D01*
X0315117Y0086627D01*
X0315163Y0086665D01*
X0315207Y0086707D01*
X0315249Y0086751D01*
X0315287Y0086797D01*
X0315323Y0086846D01*
X0315356Y0086897D01*
X0315385Y0086949D01*
X0315412Y0087004D01*
X0315435Y0087059D01*
X0315455Y0087116D01*
X0315471Y0087175D01*
X0315484Y0087234D01*
X0315493Y0087293D01*
X0315498Y0087354D01*
X0315500Y0087414D01*
X0315500Y0088914D01*
X0315000Y0089414D01*
X0315000Y0108414D01*
X0315500Y0108914D01*
X0315500Y0110414D01*
X0315498Y0110474D01*
X0315493Y0110535D01*
X0315484Y0110594D01*
X0315471Y0110653D01*
X0315455Y0110712D01*
X0315435Y0110769D01*
X0315412Y0110824D01*
X0315385Y0110879D01*
X0315356Y0110931D01*
X0315323Y0110982D01*
X0315287Y0111031D01*
X0315249Y0111077D01*
X0315207Y0111121D01*
X0315163Y0111163D01*
X0315117Y0111201D01*
X0315068Y0111237D01*
X0315017Y0111270D01*
X0314965Y0111299D01*
X0314910Y0111326D01*
X0314855Y0111349D01*
X0314798Y0111369D01*
X0314739Y0111385D01*
X0314680Y0111398D01*
X0314621Y0111407D01*
X0314560Y0111412D01*
X0314500Y0111414D01*
X0265500Y0117414D02*
X0265500Y0118914D01*
X0265000Y0119414D01*
X0265000Y0138414D01*
X0265500Y0138914D01*
X0265500Y0140414D01*
X0265498Y0140474D01*
X0265493Y0140535D01*
X0265484Y0140594D01*
X0265471Y0140653D01*
X0265455Y0140712D01*
X0265435Y0140769D01*
X0265412Y0140824D01*
X0265385Y0140879D01*
X0265356Y0140931D01*
X0265323Y0140982D01*
X0265287Y0141031D01*
X0265249Y0141077D01*
X0265207Y0141121D01*
X0265163Y0141163D01*
X0265117Y0141201D01*
X0265068Y0141237D01*
X0265017Y0141270D01*
X0264965Y0141299D01*
X0264910Y0141326D01*
X0264855Y0141349D01*
X0264798Y0141369D01*
X0264739Y0141385D01*
X0264680Y0141398D01*
X0264621Y0141407D01*
X0264560Y0141412D01*
X0264500Y0141414D01*
X0257500Y0141414D01*
X0257440Y0141412D01*
X0257379Y0141407D01*
X0257320Y0141398D01*
X0257261Y0141385D01*
X0257202Y0141369D01*
X0257145Y0141349D01*
X0257090Y0141326D01*
X0257035Y0141299D01*
X0256983Y0141270D01*
X0256932Y0141237D01*
X0256883Y0141201D01*
X0256837Y0141163D01*
X0256793Y0141121D01*
X0256751Y0141077D01*
X0256713Y0141031D01*
X0256677Y0140982D01*
X0256644Y0140931D01*
X0256615Y0140879D01*
X0256588Y0140824D01*
X0256565Y0140769D01*
X0256545Y0140712D01*
X0256529Y0140653D01*
X0256516Y0140594D01*
X0256507Y0140535D01*
X0256502Y0140474D01*
X0256500Y0140414D01*
X0256500Y0138914D01*
X0257000Y0138414D01*
X0257000Y0119414D01*
X0256500Y0118914D01*
X0256500Y0117414D01*
X0256502Y0117354D01*
X0256507Y0117293D01*
X0256516Y0117234D01*
X0256529Y0117175D01*
X0256545Y0117116D01*
X0256565Y0117059D01*
X0256588Y0117004D01*
X0256615Y0116949D01*
X0256644Y0116897D01*
X0256677Y0116846D01*
X0256713Y0116797D01*
X0256751Y0116751D01*
X0256793Y0116707D01*
X0256837Y0116665D01*
X0256883Y0116627D01*
X0256932Y0116591D01*
X0256983Y0116558D01*
X0257035Y0116529D01*
X0257090Y0116502D01*
X0257145Y0116479D01*
X0257202Y0116459D01*
X0257261Y0116443D01*
X0257320Y0116430D01*
X0257379Y0116421D01*
X0257440Y0116416D01*
X0257500Y0116414D01*
X0264500Y0116414D01*
X0264560Y0116416D01*
X0264621Y0116421D01*
X0264680Y0116430D01*
X0264739Y0116443D01*
X0264798Y0116459D01*
X0264855Y0116479D01*
X0264910Y0116502D01*
X0264965Y0116529D01*
X0265017Y0116558D01*
X0265068Y0116591D01*
X0265117Y0116627D01*
X0265163Y0116665D01*
X0265207Y0116707D01*
X0265249Y0116751D01*
X0265287Y0116797D01*
X0265323Y0116846D01*
X0265356Y0116897D01*
X0265385Y0116949D01*
X0265412Y0117004D01*
X0265435Y0117059D01*
X0265455Y0117116D01*
X0265471Y0117175D01*
X0265484Y0117234D01*
X0265493Y0117293D01*
X0265498Y0117354D01*
X0265500Y0117414D01*
X0250500Y0117414D02*
X0250500Y0118914D01*
X0250000Y0119414D01*
X0250000Y0138414D01*
X0250500Y0138914D01*
X0250500Y0140414D01*
X0250498Y0140474D01*
X0250493Y0140535D01*
X0250484Y0140594D01*
X0250471Y0140653D01*
X0250455Y0140712D01*
X0250435Y0140769D01*
X0250412Y0140824D01*
X0250385Y0140879D01*
X0250356Y0140931D01*
X0250323Y0140982D01*
X0250287Y0141031D01*
X0250249Y0141077D01*
X0250207Y0141121D01*
X0250163Y0141163D01*
X0250117Y0141201D01*
X0250068Y0141237D01*
X0250017Y0141270D01*
X0249965Y0141299D01*
X0249910Y0141326D01*
X0249855Y0141349D01*
X0249798Y0141369D01*
X0249739Y0141385D01*
X0249680Y0141398D01*
X0249621Y0141407D01*
X0249560Y0141412D01*
X0249500Y0141414D01*
X0242500Y0141414D01*
X0242440Y0141412D01*
X0242379Y0141407D01*
X0242320Y0141398D01*
X0242261Y0141385D01*
X0242202Y0141369D01*
X0242145Y0141349D01*
X0242090Y0141326D01*
X0242035Y0141299D01*
X0241983Y0141270D01*
X0241932Y0141237D01*
X0241883Y0141201D01*
X0241837Y0141163D01*
X0241793Y0141121D01*
X0241751Y0141077D01*
X0241713Y0141031D01*
X0241677Y0140982D01*
X0241644Y0140931D01*
X0241615Y0140879D01*
X0241588Y0140824D01*
X0241565Y0140769D01*
X0241545Y0140712D01*
X0241529Y0140653D01*
X0241516Y0140594D01*
X0241507Y0140535D01*
X0241502Y0140474D01*
X0241500Y0140414D01*
X0241500Y0138914D01*
X0242000Y0138414D01*
X0242000Y0119414D01*
X0241500Y0118914D01*
X0241500Y0117414D01*
X0241502Y0117354D01*
X0241507Y0117293D01*
X0241516Y0117234D01*
X0241529Y0117175D01*
X0241545Y0117116D01*
X0241565Y0117059D01*
X0241588Y0117004D01*
X0241615Y0116949D01*
X0241644Y0116897D01*
X0241677Y0116846D01*
X0241713Y0116797D01*
X0241751Y0116751D01*
X0241793Y0116707D01*
X0241837Y0116665D01*
X0241883Y0116627D01*
X0241932Y0116591D01*
X0241983Y0116558D01*
X0242035Y0116529D01*
X0242090Y0116502D01*
X0242145Y0116479D01*
X0242202Y0116459D01*
X0242261Y0116443D01*
X0242320Y0116430D01*
X0242379Y0116421D01*
X0242440Y0116416D01*
X0242500Y0116414D01*
X0249500Y0116414D01*
X0249560Y0116416D01*
X0249621Y0116421D01*
X0249680Y0116430D01*
X0249739Y0116443D01*
X0249798Y0116459D01*
X0249855Y0116479D01*
X0249910Y0116502D01*
X0249965Y0116529D01*
X0250017Y0116558D01*
X0250068Y0116591D01*
X0250117Y0116627D01*
X0250163Y0116665D01*
X0250207Y0116707D01*
X0250249Y0116751D01*
X0250287Y0116797D01*
X0250323Y0116846D01*
X0250356Y0116897D01*
X0250385Y0116949D01*
X0250412Y0117004D01*
X0250435Y0117059D01*
X0250455Y0117116D01*
X0250471Y0117175D01*
X0250484Y0117234D01*
X0250493Y0117293D01*
X0250498Y0117354D01*
X0250500Y0117414D01*
X0235500Y0117414D02*
X0235500Y0118914D01*
X0235000Y0119414D01*
X0235000Y0138414D01*
X0235500Y0138914D01*
X0235500Y0140414D01*
X0235498Y0140474D01*
X0235493Y0140535D01*
X0235484Y0140594D01*
X0235471Y0140653D01*
X0235455Y0140712D01*
X0235435Y0140769D01*
X0235412Y0140824D01*
X0235385Y0140879D01*
X0235356Y0140931D01*
X0235323Y0140982D01*
X0235287Y0141031D01*
X0235249Y0141077D01*
X0235207Y0141121D01*
X0235163Y0141163D01*
X0235117Y0141201D01*
X0235068Y0141237D01*
X0235017Y0141270D01*
X0234965Y0141299D01*
X0234910Y0141326D01*
X0234855Y0141349D01*
X0234798Y0141369D01*
X0234739Y0141385D01*
X0234680Y0141398D01*
X0234621Y0141407D01*
X0234560Y0141412D01*
X0234500Y0141414D01*
X0227500Y0141414D01*
X0227440Y0141412D01*
X0227379Y0141407D01*
X0227320Y0141398D01*
X0227261Y0141385D01*
X0227202Y0141369D01*
X0227145Y0141349D01*
X0227090Y0141326D01*
X0227035Y0141299D01*
X0226983Y0141270D01*
X0226932Y0141237D01*
X0226883Y0141201D01*
X0226837Y0141163D01*
X0226793Y0141121D01*
X0226751Y0141077D01*
X0226713Y0141031D01*
X0226677Y0140982D01*
X0226644Y0140931D01*
X0226615Y0140879D01*
X0226588Y0140824D01*
X0226565Y0140769D01*
X0226545Y0140712D01*
X0226529Y0140653D01*
X0226516Y0140594D01*
X0226507Y0140535D01*
X0226502Y0140474D01*
X0226500Y0140414D01*
X0226500Y0138914D01*
X0227000Y0138414D01*
X0227000Y0119414D01*
X0226500Y0118914D01*
X0226500Y0117414D01*
X0226502Y0117354D01*
X0226507Y0117293D01*
X0226516Y0117234D01*
X0226529Y0117175D01*
X0226545Y0117116D01*
X0226565Y0117059D01*
X0226588Y0117004D01*
X0226615Y0116949D01*
X0226644Y0116897D01*
X0226677Y0116846D01*
X0226713Y0116797D01*
X0226751Y0116751D01*
X0226793Y0116707D01*
X0226837Y0116665D01*
X0226883Y0116627D01*
X0226932Y0116591D01*
X0226983Y0116558D01*
X0227035Y0116529D01*
X0227090Y0116502D01*
X0227145Y0116479D01*
X0227202Y0116459D01*
X0227261Y0116443D01*
X0227320Y0116430D01*
X0227379Y0116421D01*
X0227440Y0116416D01*
X0227500Y0116414D01*
X0234500Y0116414D01*
X0234560Y0116416D01*
X0234621Y0116421D01*
X0234680Y0116430D01*
X0234739Y0116443D01*
X0234798Y0116459D01*
X0234855Y0116479D01*
X0234910Y0116502D01*
X0234965Y0116529D01*
X0235017Y0116558D01*
X0235068Y0116591D01*
X0235117Y0116627D01*
X0235163Y0116665D01*
X0235207Y0116707D01*
X0235249Y0116751D01*
X0235287Y0116797D01*
X0235323Y0116846D01*
X0235356Y0116897D01*
X0235385Y0116949D01*
X0235412Y0117004D01*
X0235435Y0117059D01*
X0235455Y0117116D01*
X0235471Y0117175D01*
X0235484Y0117234D01*
X0235493Y0117293D01*
X0235498Y0117354D01*
X0235500Y0117414D01*
X0201000Y0132414D02*
X0201000Y0155414D01*
X0161000Y0155414D01*
X0161000Y0147914D01*
X0161126Y0147912D01*
X0161251Y0147906D01*
X0161376Y0147896D01*
X0161501Y0147882D01*
X0161626Y0147865D01*
X0161750Y0147843D01*
X0161873Y0147818D01*
X0161995Y0147788D01*
X0162116Y0147755D01*
X0162236Y0147718D01*
X0162355Y0147678D01*
X0162472Y0147633D01*
X0162589Y0147585D01*
X0162703Y0147533D01*
X0162816Y0147478D01*
X0162927Y0147419D01*
X0163036Y0147357D01*
X0163143Y0147291D01*
X0163248Y0147222D01*
X0163351Y0147150D01*
X0163452Y0147075D01*
X0163550Y0146996D01*
X0163645Y0146914D01*
X0163738Y0146830D01*
X0163828Y0146742D01*
X0163916Y0146652D01*
X0164000Y0146559D01*
X0164082Y0146464D01*
X0164161Y0146366D01*
X0164236Y0146265D01*
X0164308Y0146162D01*
X0164377Y0146057D01*
X0164443Y0145950D01*
X0164505Y0145841D01*
X0164564Y0145730D01*
X0164619Y0145617D01*
X0164671Y0145503D01*
X0164719Y0145386D01*
X0164764Y0145269D01*
X0164804Y0145150D01*
X0164841Y0145030D01*
X0164874Y0144909D01*
X0164904Y0144787D01*
X0164929Y0144664D01*
X0164951Y0144540D01*
X0164968Y0144415D01*
X0164982Y0144290D01*
X0164992Y0144165D01*
X0164998Y0144040D01*
X0165000Y0143914D01*
X0164998Y0143788D01*
X0164992Y0143663D01*
X0164982Y0143538D01*
X0164968Y0143413D01*
X0164951Y0143288D01*
X0164929Y0143164D01*
X0164904Y0143041D01*
X0164874Y0142919D01*
X0164841Y0142798D01*
X0164804Y0142678D01*
X0164764Y0142559D01*
X0164719Y0142442D01*
X0164671Y0142325D01*
X0164619Y0142211D01*
X0164564Y0142098D01*
X0164505Y0141987D01*
X0164443Y0141878D01*
X0164377Y0141771D01*
X0164308Y0141666D01*
X0164236Y0141563D01*
X0164161Y0141462D01*
X0164082Y0141364D01*
X0164000Y0141269D01*
X0163916Y0141176D01*
X0163828Y0141086D01*
X0163738Y0140998D01*
X0163645Y0140914D01*
X0163550Y0140832D01*
X0163452Y0140753D01*
X0163351Y0140678D01*
X0163248Y0140606D01*
X0163143Y0140537D01*
X0163036Y0140471D01*
X0162927Y0140409D01*
X0162816Y0140350D01*
X0162703Y0140295D01*
X0162589Y0140243D01*
X0162472Y0140195D01*
X0162355Y0140150D01*
X0162236Y0140110D01*
X0162116Y0140073D01*
X0161995Y0140040D01*
X0161873Y0140010D01*
X0161750Y0139985D01*
X0161626Y0139963D01*
X0161501Y0139946D01*
X0161376Y0139932D01*
X0161251Y0139922D01*
X0161126Y0139916D01*
X0161000Y0139914D01*
X0161000Y0132414D01*
X0201000Y0132414D01*
X0214500Y0159414D02*
X0216000Y0159414D01*
X0216500Y0159914D01*
X0235500Y0159914D01*
X0236000Y0159414D01*
X0237500Y0159414D01*
X0237560Y0159416D01*
X0237621Y0159421D01*
X0237680Y0159430D01*
X0237739Y0159443D01*
X0237798Y0159459D01*
X0237855Y0159479D01*
X0237910Y0159502D01*
X0237965Y0159529D01*
X0238017Y0159558D01*
X0238068Y0159591D01*
X0238117Y0159627D01*
X0238163Y0159665D01*
X0238207Y0159707D01*
X0238249Y0159751D01*
X0238287Y0159797D01*
X0238323Y0159846D01*
X0238356Y0159897D01*
X0238385Y0159949D01*
X0238412Y0160004D01*
X0238435Y0160059D01*
X0238455Y0160116D01*
X0238471Y0160175D01*
X0238484Y0160234D01*
X0238493Y0160293D01*
X0238498Y0160354D01*
X0238500Y0160414D01*
X0238500Y0167414D01*
X0238498Y0167474D01*
X0238493Y0167535D01*
X0238484Y0167594D01*
X0238471Y0167653D01*
X0238455Y0167712D01*
X0238435Y0167769D01*
X0238412Y0167824D01*
X0238385Y0167879D01*
X0238356Y0167931D01*
X0238323Y0167982D01*
X0238287Y0168031D01*
X0238249Y0168077D01*
X0238207Y0168121D01*
X0238163Y0168163D01*
X0238117Y0168201D01*
X0238068Y0168237D01*
X0238017Y0168270D01*
X0237965Y0168299D01*
X0237910Y0168326D01*
X0237855Y0168349D01*
X0237798Y0168369D01*
X0237739Y0168385D01*
X0237680Y0168398D01*
X0237621Y0168407D01*
X0237560Y0168412D01*
X0237500Y0168414D01*
X0236000Y0168414D01*
X0235500Y0167914D01*
X0216500Y0167914D01*
X0216000Y0168414D01*
X0214500Y0168414D01*
X0214440Y0168412D01*
X0214379Y0168407D01*
X0214320Y0168398D01*
X0214261Y0168385D01*
X0214202Y0168369D01*
X0214145Y0168349D01*
X0214090Y0168326D01*
X0214035Y0168299D01*
X0213983Y0168270D01*
X0213932Y0168237D01*
X0213883Y0168201D01*
X0213837Y0168163D01*
X0213793Y0168121D01*
X0213751Y0168077D01*
X0213713Y0168031D01*
X0213677Y0167982D01*
X0213644Y0167931D01*
X0213615Y0167879D01*
X0213588Y0167824D01*
X0213565Y0167769D01*
X0213545Y0167712D01*
X0213529Y0167653D01*
X0213516Y0167594D01*
X0213507Y0167535D01*
X0213502Y0167474D01*
X0213500Y0167414D01*
X0213500Y0160414D01*
X0213502Y0160354D01*
X0213507Y0160293D01*
X0213516Y0160234D01*
X0213529Y0160175D01*
X0213545Y0160116D01*
X0213565Y0160059D01*
X0213588Y0160004D01*
X0213615Y0159949D01*
X0213644Y0159897D01*
X0213677Y0159846D01*
X0213713Y0159797D01*
X0213751Y0159751D01*
X0213793Y0159707D01*
X0213837Y0159665D01*
X0213883Y0159627D01*
X0213932Y0159591D01*
X0213983Y0159558D01*
X0214035Y0159529D01*
X0214090Y0159502D01*
X0214145Y0159479D01*
X0214202Y0159459D01*
X0214261Y0159443D01*
X0214320Y0159430D01*
X0214379Y0159421D01*
X0214440Y0159416D01*
X0214500Y0159414D01*
X0282500Y0231414D02*
X0289500Y0231414D01*
X0289560Y0231416D01*
X0289621Y0231421D01*
X0289680Y0231430D01*
X0289739Y0231443D01*
X0289798Y0231459D01*
X0289855Y0231479D01*
X0289910Y0231502D01*
X0289965Y0231529D01*
X0290017Y0231558D01*
X0290068Y0231591D01*
X0290117Y0231627D01*
X0290163Y0231665D01*
X0290207Y0231707D01*
X0290249Y0231751D01*
X0290287Y0231797D01*
X0290323Y0231846D01*
X0290356Y0231897D01*
X0290385Y0231949D01*
X0290412Y0232004D01*
X0290435Y0232059D01*
X0290455Y0232116D01*
X0290471Y0232175D01*
X0290484Y0232234D01*
X0290493Y0232293D01*
X0290498Y0232354D01*
X0290500Y0232414D01*
X0290500Y0233914D01*
X0290000Y0234414D01*
X0290000Y0253414D01*
X0290500Y0253914D01*
X0290500Y0255414D01*
X0290498Y0255474D01*
X0290493Y0255535D01*
X0290484Y0255594D01*
X0290471Y0255653D01*
X0290455Y0255712D01*
X0290435Y0255769D01*
X0290412Y0255824D01*
X0290385Y0255879D01*
X0290356Y0255931D01*
X0290323Y0255982D01*
X0290287Y0256031D01*
X0290249Y0256077D01*
X0290207Y0256121D01*
X0290163Y0256163D01*
X0290117Y0256201D01*
X0290068Y0256237D01*
X0290017Y0256270D01*
X0289965Y0256299D01*
X0289910Y0256326D01*
X0289855Y0256349D01*
X0289798Y0256369D01*
X0289739Y0256385D01*
X0289680Y0256398D01*
X0289621Y0256407D01*
X0289560Y0256412D01*
X0289500Y0256414D01*
X0282500Y0256414D01*
X0282440Y0256412D01*
X0282379Y0256407D01*
X0282320Y0256398D01*
X0282261Y0256385D01*
X0282202Y0256369D01*
X0282145Y0256349D01*
X0282090Y0256326D01*
X0282035Y0256299D01*
X0281983Y0256270D01*
X0281932Y0256237D01*
X0281883Y0256201D01*
X0281837Y0256163D01*
X0281793Y0256121D01*
X0281751Y0256077D01*
X0281713Y0256031D01*
X0281677Y0255982D01*
X0281644Y0255931D01*
X0281615Y0255879D01*
X0281588Y0255824D01*
X0281565Y0255769D01*
X0281545Y0255712D01*
X0281529Y0255653D01*
X0281516Y0255594D01*
X0281507Y0255535D01*
X0281502Y0255474D01*
X0281500Y0255414D01*
X0281500Y0253914D01*
X0282000Y0253414D01*
X0282000Y0234414D01*
X0281500Y0233914D01*
X0281500Y0232414D01*
X0281502Y0232354D01*
X0281507Y0232293D01*
X0281516Y0232234D01*
X0281529Y0232175D01*
X0281545Y0232116D01*
X0281565Y0232059D01*
X0281588Y0232004D01*
X0281615Y0231949D01*
X0281644Y0231897D01*
X0281677Y0231846D01*
X0281713Y0231797D01*
X0281751Y0231751D01*
X0281793Y0231707D01*
X0281837Y0231665D01*
X0281883Y0231627D01*
X0281932Y0231591D01*
X0281983Y0231558D01*
X0282035Y0231529D01*
X0282090Y0231502D01*
X0282145Y0231479D01*
X0282202Y0231459D01*
X0282261Y0231443D01*
X0282320Y0231430D01*
X0282379Y0231421D01*
X0282440Y0231416D01*
X0282500Y0231414D01*
X0315410Y0223914D02*
X0315412Y0224063D01*
X0315418Y0224213D01*
X0315428Y0224362D01*
X0315442Y0224511D01*
X0315460Y0224659D01*
X0315482Y0224807D01*
X0315508Y0224954D01*
X0315537Y0225101D01*
X0315571Y0225246D01*
X0315609Y0225391D01*
X0315650Y0225534D01*
X0315695Y0225677D01*
X0315744Y0225818D01*
X0315797Y0225958D01*
X0315854Y0226096D01*
X0315914Y0226233D01*
X0315978Y0226368D01*
X0316045Y0226502D01*
X0316116Y0226633D01*
X0316190Y0226763D01*
X0316268Y0226890D01*
X0316349Y0227016D01*
X0316434Y0227139D01*
X0316522Y0227260D01*
X0316613Y0227378D01*
X0316707Y0227494D01*
X0316804Y0227608D01*
X0316905Y0227719D01*
X0317008Y0227827D01*
X0317114Y0227932D01*
X0317223Y0228035D01*
X0317334Y0228134D01*
X0317448Y0228231D01*
X0317565Y0228324D01*
X0317684Y0228414D01*
X0317806Y0228501D01*
X0317929Y0228585D01*
X0318055Y0228666D01*
X0318183Y0228743D01*
X0318314Y0228816D01*
X0318446Y0228886D01*
X0318579Y0228953D01*
X0318715Y0229016D01*
X0318852Y0229075D01*
X0318991Y0229130D01*
X0319131Y0229182D01*
X0319273Y0229230D01*
X0319415Y0229275D01*
X0319559Y0229315D01*
X0319704Y0229352D01*
X0319850Y0229384D01*
X0319997Y0229413D01*
X0320144Y0229438D01*
X0320292Y0229459D01*
X0320440Y0229476D01*
X0320589Y0229489D01*
X0320739Y0229498D01*
X0320888Y0229503D01*
X0321037Y0229504D01*
X0321187Y0229501D01*
X0321336Y0229494D01*
X0321485Y0229483D01*
X0321634Y0229468D01*
X0321782Y0229449D01*
X0321930Y0229426D01*
X0322077Y0229399D01*
X0322223Y0229369D01*
X0322368Y0229334D01*
X0322513Y0229295D01*
X0322656Y0229253D01*
X0322798Y0229207D01*
X0322939Y0229157D01*
X0323079Y0229103D01*
X0323217Y0229046D01*
X0323353Y0228985D01*
X0323488Y0228920D01*
X0323621Y0228852D01*
X0323752Y0228780D01*
X0323881Y0228704D01*
X0324008Y0228626D01*
X0324133Y0228544D01*
X0324255Y0228458D01*
X0324376Y0228370D01*
X0324494Y0228278D01*
X0324609Y0228183D01*
X0324722Y0228085D01*
X0324832Y0227984D01*
X0324939Y0227880D01*
X0325044Y0227773D01*
X0325146Y0227664D01*
X0325245Y0227552D01*
X0325340Y0227437D01*
X0325433Y0227319D01*
X0325522Y0227200D01*
X0325609Y0227078D01*
X0325692Y0226953D01*
X0325771Y0226827D01*
X0325847Y0226698D01*
X0325920Y0226568D01*
X0325989Y0226435D01*
X0326055Y0226301D01*
X0326117Y0226165D01*
X0326175Y0226027D01*
X0326230Y0225888D01*
X0326281Y0225748D01*
X0326328Y0225606D01*
X0326371Y0225463D01*
X0326411Y0225319D01*
X0326446Y0225173D01*
X0326478Y0225027D01*
X0326506Y0224881D01*
X0326530Y0224733D01*
X0326550Y0224585D01*
X0326566Y0224436D01*
X0326578Y0224287D01*
X0326586Y0224138D01*
X0326590Y0223989D01*
X0326590Y0223839D01*
X0326586Y0223690D01*
X0326578Y0223541D01*
X0326566Y0223392D01*
X0326550Y0223243D01*
X0326530Y0223095D01*
X0326506Y0222947D01*
X0326478Y0222801D01*
X0326446Y0222655D01*
X0326411Y0222509D01*
X0326371Y0222365D01*
X0326328Y0222222D01*
X0326281Y0222080D01*
X0326230Y0221940D01*
X0326175Y0221801D01*
X0326117Y0221663D01*
X0326055Y0221527D01*
X0325989Y0221393D01*
X0325920Y0221260D01*
X0325847Y0221130D01*
X0325771Y0221001D01*
X0325692Y0220875D01*
X0325609Y0220750D01*
X0325522Y0220628D01*
X0325433Y0220509D01*
X0325340Y0220391D01*
X0325245Y0220276D01*
X0325146Y0220164D01*
X0325044Y0220055D01*
X0324939Y0219948D01*
X0324832Y0219844D01*
X0324722Y0219743D01*
X0324609Y0219645D01*
X0324494Y0219550D01*
X0324376Y0219458D01*
X0324255Y0219370D01*
X0324133Y0219284D01*
X0324008Y0219202D01*
X0323881Y0219124D01*
X0323752Y0219048D01*
X0323621Y0218976D01*
X0323488Y0218908D01*
X0323353Y0218843D01*
X0323217Y0218782D01*
X0323079Y0218725D01*
X0322939Y0218671D01*
X0322798Y0218621D01*
X0322656Y0218575D01*
X0322513Y0218533D01*
X0322368Y0218494D01*
X0322223Y0218459D01*
X0322077Y0218429D01*
X0321930Y0218402D01*
X0321782Y0218379D01*
X0321634Y0218360D01*
X0321485Y0218345D01*
X0321336Y0218334D01*
X0321187Y0218327D01*
X0321037Y0218324D01*
X0320888Y0218325D01*
X0320739Y0218330D01*
X0320589Y0218339D01*
X0320440Y0218352D01*
X0320292Y0218369D01*
X0320144Y0218390D01*
X0319997Y0218415D01*
X0319850Y0218444D01*
X0319704Y0218476D01*
X0319559Y0218513D01*
X0319415Y0218553D01*
X0319273Y0218598D01*
X0319131Y0218646D01*
X0318991Y0218698D01*
X0318852Y0218753D01*
X0318715Y0218812D01*
X0318579Y0218875D01*
X0318446Y0218942D01*
X0318314Y0219012D01*
X0318183Y0219085D01*
X0318055Y0219162D01*
X0317929Y0219243D01*
X0317806Y0219327D01*
X0317684Y0219414D01*
X0317565Y0219504D01*
X0317448Y0219597D01*
X0317334Y0219694D01*
X0317223Y0219793D01*
X0317114Y0219896D01*
X0317008Y0220001D01*
X0316905Y0220109D01*
X0316804Y0220220D01*
X0316707Y0220334D01*
X0316613Y0220450D01*
X0316522Y0220568D01*
X0316434Y0220689D01*
X0316349Y0220812D01*
X0316268Y0220938D01*
X0316190Y0221065D01*
X0316116Y0221195D01*
X0316045Y0221326D01*
X0315978Y0221460D01*
X0315914Y0221595D01*
X0315854Y0221732D01*
X0315797Y0221870D01*
X0315744Y0222010D01*
X0315695Y0222151D01*
X0315650Y0222294D01*
X0315609Y0222437D01*
X0315571Y0222582D01*
X0315537Y0222727D01*
X0315508Y0222874D01*
X0315482Y0223021D01*
X0315460Y0223169D01*
X0315442Y0223317D01*
X0315428Y0223466D01*
X0315418Y0223615D01*
X0315412Y0223765D01*
X0315410Y0223914D01*
X0306000Y0223914D02*
X0306005Y0224282D01*
X0306018Y0224650D01*
X0306041Y0225017D01*
X0306072Y0225384D01*
X0306113Y0225750D01*
X0306162Y0226115D01*
X0306221Y0226478D01*
X0306288Y0226840D01*
X0306364Y0227201D01*
X0306450Y0227559D01*
X0306543Y0227915D01*
X0306646Y0228268D01*
X0306757Y0228619D01*
X0306877Y0228967D01*
X0307005Y0229312D01*
X0307142Y0229654D01*
X0307287Y0229993D01*
X0307440Y0230327D01*
X0307602Y0230658D01*
X0307771Y0230985D01*
X0307949Y0231307D01*
X0308134Y0231626D01*
X0308327Y0231939D01*
X0308528Y0232248D01*
X0308736Y0232551D01*
X0308952Y0232849D01*
X0309175Y0233142D01*
X0309405Y0233430D01*
X0309642Y0233712D01*
X0309886Y0233987D01*
X0310136Y0234257D01*
X0310393Y0234521D01*
X0310657Y0234778D01*
X0310927Y0235028D01*
X0311202Y0235272D01*
X0311484Y0235509D01*
X0311772Y0235739D01*
X0312065Y0235962D01*
X0312363Y0236178D01*
X0312666Y0236386D01*
X0312975Y0236587D01*
X0313288Y0236780D01*
X0313607Y0236965D01*
X0313929Y0237143D01*
X0314256Y0237312D01*
X0314587Y0237474D01*
X0314921Y0237627D01*
X0315260Y0237772D01*
X0315602Y0237909D01*
X0315947Y0238037D01*
X0316295Y0238157D01*
X0316646Y0238268D01*
X0316999Y0238371D01*
X0317355Y0238464D01*
X0317713Y0238550D01*
X0318074Y0238626D01*
X0318436Y0238693D01*
X0318799Y0238752D01*
X0319164Y0238801D01*
X0319530Y0238842D01*
X0319897Y0238873D01*
X0320264Y0238896D01*
X0320632Y0238909D01*
X0321000Y0238914D01*
X0321368Y0238909D01*
X0321736Y0238896D01*
X0322103Y0238873D01*
X0322470Y0238842D01*
X0322836Y0238801D01*
X0323201Y0238752D01*
X0323564Y0238693D01*
X0323926Y0238626D01*
X0324287Y0238550D01*
X0324645Y0238464D01*
X0325001Y0238371D01*
X0325354Y0238268D01*
X0325705Y0238157D01*
X0326053Y0238037D01*
X0326398Y0237909D01*
X0326740Y0237772D01*
X0327079Y0237627D01*
X0327413Y0237474D01*
X0327744Y0237312D01*
X0328071Y0237143D01*
X0328393Y0236965D01*
X0328712Y0236780D01*
X0329025Y0236587D01*
X0329334Y0236386D01*
X0329637Y0236178D01*
X0329935Y0235962D01*
X0330228Y0235739D01*
X0330516Y0235509D01*
X0330798Y0235272D01*
X0331073Y0235028D01*
X0331343Y0234778D01*
X0331607Y0234521D01*
X0331864Y0234257D01*
X0332114Y0233987D01*
X0332358Y0233712D01*
X0332595Y0233430D01*
X0332825Y0233142D01*
X0333048Y0232849D01*
X0333264Y0232551D01*
X0333472Y0232248D01*
X0333673Y0231939D01*
X0333866Y0231626D01*
X0334051Y0231307D01*
X0334229Y0230985D01*
X0334398Y0230658D01*
X0334560Y0230327D01*
X0334713Y0229993D01*
X0334858Y0229654D01*
X0334995Y0229312D01*
X0335123Y0228967D01*
X0335243Y0228619D01*
X0335354Y0228268D01*
X0335457Y0227915D01*
X0335550Y0227559D01*
X0335636Y0227201D01*
X0335712Y0226840D01*
X0335779Y0226478D01*
X0335838Y0226115D01*
X0335887Y0225750D01*
X0335928Y0225384D01*
X0335959Y0225017D01*
X0335982Y0224650D01*
X0335995Y0224282D01*
X0336000Y0223914D01*
X0335995Y0223546D01*
X0335982Y0223178D01*
X0335959Y0222811D01*
X0335928Y0222444D01*
X0335887Y0222078D01*
X0335838Y0221713D01*
X0335779Y0221350D01*
X0335712Y0220988D01*
X0335636Y0220627D01*
X0335550Y0220269D01*
X0335457Y0219913D01*
X0335354Y0219560D01*
X0335243Y0219209D01*
X0335123Y0218861D01*
X0334995Y0218516D01*
X0334858Y0218174D01*
X0334713Y0217835D01*
X0334560Y0217501D01*
X0334398Y0217170D01*
X0334229Y0216843D01*
X0334051Y0216521D01*
X0333866Y0216202D01*
X0333673Y0215889D01*
X0333472Y0215580D01*
X0333264Y0215277D01*
X0333048Y0214979D01*
X0332825Y0214686D01*
X0332595Y0214398D01*
X0332358Y0214116D01*
X0332114Y0213841D01*
X0331864Y0213571D01*
X0331607Y0213307D01*
X0331343Y0213050D01*
X0331073Y0212800D01*
X0330798Y0212556D01*
X0330516Y0212319D01*
X0330228Y0212089D01*
X0329935Y0211866D01*
X0329637Y0211650D01*
X0329334Y0211442D01*
X0329025Y0211241D01*
X0328712Y0211048D01*
X0328393Y0210863D01*
X0328071Y0210685D01*
X0327744Y0210516D01*
X0327413Y0210354D01*
X0327079Y0210201D01*
X0326740Y0210056D01*
X0326398Y0209919D01*
X0326053Y0209791D01*
X0325705Y0209671D01*
X0325354Y0209560D01*
X0325001Y0209457D01*
X0324645Y0209364D01*
X0324287Y0209278D01*
X0323926Y0209202D01*
X0323564Y0209135D01*
X0323201Y0209076D01*
X0322836Y0209027D01*
X0322470Y0208986D01*
X0322103Y0208955D01*
X0321736Y0208932D01*
X0321368Y0208919D01*
X0321000Y0208914D01*
X0320632Y0208919D01*
X0320264Y0208932D01*
X0319897Y0208955D01*
X0319530Y0208986D01*
X0319164Y0209027D01*
X0318799Y0209076D01*
X0318436Y0209135D01*
X0318074Y0209202D01*
X0317713Y0209278D01*
X0317355Y0209364D01*
X0316999Y0209457D01*
X0316646Y0209560D01*
X0316295Y0209671D01*
X0315947Y0209791D01*
X0315602Y0209919D01*
X0315260Y0210056D01*
X0314921Y0210201D01*
X0314587Y0210354D01*
X0314256Y0210516D01*
X0313929Y0210685D01*
X0313607Y0210863D01*
X0313288Y0211048D01*
X0312975Y0211241D01*
X0312666Y0211442D01*
X0312363Y0211650D01*
X0312065Y0211866D01*
X0311772Y0212089D01*
X0311484Y0212319D01*
X0311202Y0212556D01*
X0310927Y0212800D01*
X0310657Y0213050D01*
X0310393Y0213307D01*
X0310136Y0213571D01*
X0309886Y0213841D01*
X0309642Y0214116D01*
X0309405Y0214398D01*
X0309175Y0214686D01*
X0308952Y0214979D01*
X0308736Y0215277D01*
X0308528Y0215580D01*
X0308327Y0215889D01*
X0308134Y0216202D01*
X0307949Y0216521D01*
X0307771Y0216843D01*
X0307602Y0217170D01*
X0307440Y0217501D01*
X0307287Y0217835D01*
X0307142Y0218174D01*
X0307005Y0218516D01*
X0306877Y0218861D01*
X0306757Y0219209D01*
X0306646Y0219560D01*
X0306543Y0219913D01*
X0306450Y0220269D01*
X0306364Y0220627D01*
X0306288Y0220988D01*
X0306221Y0221350D01*
X0306162Y0221713D01*
X0306113Y0222078D01*
X0306072Y0222444D01*
X0306041Y0222811D01*
X0306018Y0223178D01*
X0306005Y0223546D01*
X0306000Y0223914D01*
X0201000Y0075414D02*
X0161000Y0075414D01*
X0161000Y0067914D01*
X0161126Y0067912D01*
X0161251Y0067906D01*
X0161376Y0067896D01*
X0161501Y0067882D01*
X0161626Y0067865D01*
X0161750Y0067843D01*
X0161873Y0067818D01*
X0161995Y0067788D01*
X0162116Y0067755D01*
X0162236Y0067718D01*
X0162355Y0067678D01*
X0162472Y0067633D01*
X0162589Y0067585D01*
X0162703Y0067533D01*
X0162816Y0067478D01*
X0162927Y0067419D01*
X0163036Y0067357D01*
X0163143Y0067291D01*
X0163248Y0067222D01*
X0163351Y0067150D01*
X0163452Y0067075D01*
X0163550Y0066996D01*
X0163645Y0066914D01*
X0163738Y0066830D01*
X0163828Y0066742D01*
X0163916Y0066652D01*
X0164000Y0066559D01*
X0164082Y0066464D01*
X0164161Y0066366D01*
X0164236Y0066265D01*
X0164308Y0066162D01*
X0164377Y0066057D01*
X0164443Y0065950D01*
X0164505Y0065841D01*
X0164564Y0065730D01*
X0164619Y0065617D01*
X0164671Y0065503D01*
X0164719Y0065386D01*
X0164764Y0065269D01*
X0164804Y0065150D01*
X0164841Y0065030D01*
X0164874Y0064909D01*
X0164904Y0064787D01*
X0164929Y0064664D01*
X0164951Y0064540D01*
X0164968Y0064415D01*
X0164982Y0064290D01*
X0164992Y0064165D01*
X0164998Y0064040D01*
X0165000Y0063914D01*
X0164998Y0063788D01*
X0164992Y0063663D01*
X0164982Y0063538D01*
X0164968Y0063413D01*
X0164951Y0063288D01*
X0164929Y0063164D01*
X0164904Y0063041D01*
X0164874Y0062919D01*
X0164841Y0062798D01*
X0164804Y0062678D01*
X0164764Y0062559D01*
X0164719Y0062442D01*
X0164671Y0062325D01*
X0164619Y0062211D01*
X0164564Y0062098D01*
X0164505Y0061987D01*
X0164443Y0061878D01*
X0164377Y0061771D01*
X0164308Y0061666D01*
X0164236Y0061563D01*
X0164161Y0061462D01*
X0164082Y0061364D01*
X0164000Y0061269D01*
X0163916Y0061176D01*
X0163828Y0061086D01*
X0163738Y0060998D01*
X0163645Y0060914D01*
X0163550Y0060832D01*
X0163452Y0060753D01*
X0163351Y0060678D01*
X0163248Y0060606D01*
X0163143Y0060537D01*
X0163036Y0060471D01*
X0162927Y0060409D01*
X0162816Y0060350D01*
X0162703Y0060295D01*
X0162589Y0060243D01*
X0162472Y0060195D01*
X0162355Y0060150D01*
X0162236Y0060110D01*
X0162116Y0060073D01*
X0161995Y0060040D01*
X0161873Y0060010D01*
X0161750Y0059985D01*
X0161626Y0059963D01*
X0161501Y0059946D01*
X0161376Y0059932D01*
X0161251Y0059922D01*
X0161126Y0059916D01*
X0161000Y0059914D01*
X0161000Y0052414D01*
X0201000Y0052414D01*
X0201000Y0075414D01*
X0242000Y0056914D02*
X0242000Y0040914D01*
X0242002Y0040854D01*
X0242007Y0040793D01*
X0242016Y0040734D01*
X0242029Y0040675D01*
X0242045Y0040616D01*
X0242065Y0040559D01*
X0242088Y0040504D01*
X0242115Y0040449D01*
X0242144Y0040397D01*
X0242177Y0040346D01*
X0242213Y0040297D01*
X0242251Y0040251D01*
X0242293Y0040207D01*
X0242337Y0040165D01*
X0242383Y0040127D01*
X0242432Y0040091D01*
X0242483Y0040058D01*
X0242535Y0040029D01*
X0242590Y0040002D01*
X0242645Y0039979D01*
X0242702Y0039959D01*
X0242761Y0039943D01*
X0242820Y0039930D01*
X0242879Y0039921D01*
X0242940Y0039916D01*
X0243000Y0039914D01*
X0249000Y0039914D01*
X0249060Y0039916D01*
X0249121Y0039921D01*
X0249180Y0039930D01*
X0249239Y0039943D01*
X0249298Y0039959D01*
X0249355Y0039979D01*
X0249410Y0040002D01*
X0249465Y0040029D01*
X0249517Y0040058D01*
X0249568Y0040091D01*
X0249617Y0040127D01*
X0249663Y0040165D01*
X0249707Y0040207D01*
X0249749Y0040251D01*
X0249787Y0040297D01*
X0249823Y0040346D01*
X0249856Y0040397D01*
X0249885Y0040449D01*
X0249912Y0040504D01*
X0249935Y0040559D01*
X0249955Y0040616D01*
X0249971Y0040675D01*
X0249984Y0040734D01*
X0249993Y0040793D01*
X0249998Y0040854D01*
X0250000Y0040914D01*
X0250000Y0056914D01*
X0249998Y0056974D01*
X0249993Y0057035D01*
X0249984Y0057094D01*
X0249971Y0057153D01*
X0249955Y0057212D01*
X0249935Y0057269D01*
X0249912Y0057324D01*
X0249885Y0057379D01*
X0249856Y0057431D01*
X0249823Y0057482D01*
X0249787Y0057531D01*
X0249749Y0057577D01*
X0249707Y0057621D01*
X0249663Y0057663D01*
X0249617Y0057701D01*
X0249568Y0057737D01*
X0249517Y0057770D01*
X0249465Y0057799D01*
X0249410Y0057826D01*
X0249355Y0057849D01*
X0249298Y0057869D01*
X0249239Y0057885D01*
X0249180Y0057898D01*
X0249121Y0057907D01*
X0249060Y0057912D01*
X0249000Y0057914D01*
X0243000Y0057914D01*
X0242940Y0057912D01*
X0242879Y0057907D01*
X0242820Y0057898D01*
X0242761Y0057885D01*
X0242702Y0057869D01*
X0242645Y0057849D01*
X0242590Y0057826D01*
X0242535Y0057799D01*
X0242483Y0057770D01*
X0242432Y0057737D01*
X0242383Y0057701D01*
X0242337Y0057663D01*
X0242293Y0057621D01*
X0242251Y0057577D01*
X0242213Y0057531D01*
X0242177Y0057482D01*
X0242144Y0057431D01*
X0242115Y0057379D01*
X0242088Y0057324D01*
X0242065Y0057269D01*
X0242045Y0057212D01*
X0242029Y0057153D01*
X0242016Y0057094D01*
X0242007Y0057035D01*
X0242002Y0056974D01*
X0242000Y0056914D01*
X0246000Y0051414D02*
X0246000Y0048914D01*
X0243500Y0048914D01*
X0246000Y0048914D02*
X0243500Y0044914D01*
X0248500Y0044914D01*
X0246000Y0048914D01*
X0248500Y0048914D01*
X0246000Y0048914D02*
X0246000Y0042914D01*
X0257000Y0040914D02*
X0257000Y0056914D01*
X0257002Y0056974D01*
X0257007Y0057035D01*
X0257016Y0057094D01*
X0257029Y0057153D01*
X0257045Y0057212D01*
X0257065Y0057269D01*
X0257088Y0057324D01*
X0257115Y0057379D01*
X0257144Y0057431D01*
X0257177Y0057482D01*
X0257213Y0057531D01*
X0257251Y0057577D01*
X0257293Y0057621D01*
X0257337Y0057663D01*
X0257383Y0057701D01*
X0257432Y0057737D01*
X0257483Y0057770D01*
X0257535Y0057799D01*
X0257590Y0057826D01*
X0257645Y0057849D01*
X0257702Y0057869D01*
X0257761Y0057885D01*
X0257820Y0057898D01*
X0257879Y0057907D01*
X0257940Y0057912D01*
X0258000Y0057914D01*
X0264000Y0057914D01*
X0264060Y0057912D01*
X0264121Y0057907D01*
X0264180Y0057898D01*
X0264239Y0057885D01*
X0264298Y0057869D01*
X0264355Y0057849D01*
X0264410Y0057826D01*
X0264465Y0057799D01*
X0264517Y0057770D01*
X0264568Y0057737D01*
X0264617Y0057701D01*
X0264663Y0057663D01*
X0264707Y0057621D01*
X0264749Y0057577D01*
X0264787Y0057531D01*
X0264823Y0057482D01*
X0264856Y0057431D01*
X0264885Y0057379D01*
X0264912Y0057324D01*
X0264935Y0057269D01*
X0264955Y0057212D01*
X0264971Y0057153D01*
X0264984Y0057094D01*
X0264993Y0057035D01*
X0264998Y0056974D01*
X0265000Y0056914D01*
X0265000Y0040914D01*
X0264998Y0040854D01*
X0264993Y0040793D01*
X0264984Y0040734D01*
X0264971Y0040675D01*
X0264955Y0040616D01*
X0264935Y0040559D01*
X0264912Y0040504D01*
X0264885Y0040449D01*
X0264856Y0040397D01*
X0264823Y0040346D01*
X0264787Y0040297D01*
X0264749Y0040251D01*
X0264707Y0040207D01*
X0264663Y0040165D01*
X0264617Y0040127D01*
X0264568Y0040091D01*
X0264517Y0040058D01*
X0264465Y0040029D01*
X0264410Y0040002D01*
X0264355Y0039979D01*
X0264298Y0039959D01*
X0264239Y0039943D01*
X0264180Y0039930D01*
X0264121Y0039921D01*
X0264060Y0039916D01*
X0264000Y0039914D01*
X0258000Y0039914D01*
X0257940Y0039916D01*
X0257879Y0039921D01*
X0257820Y0039930D01*
X0257761Y0039943D01*
X0257702Y0039959D01*
X0257645Y0039979D01*
X0257590Y0040002D01*
X0257535Y0040029D01*
X0257483Y0040058D01*
X0257432Y0040091D01*
X0257383Y0040127D01*
X0257337Y0040165D01*
X0257293Y0040207D01*
X0257251Y0040251D01*
X0257213Y0040297D01*
X0257177Y0040346D01*
X0257144Y0040397D01*
X0257115Y0040449D01*
X0257088Y0040504D01*
X0257065Y0040559D01*
X0257045Y0040616D01*
X0257029Y0040675D01*
X0257016Y0040734D01*
X0257007Y0040793D01*
X0257002Y0040854D01*
X0257000Y0040914D01*
X0261000Y0046414D02*
X0261000Y0048914D01*
X0263500Y0048914D01*
X0261000Y0048914D02*
X0258500Y0052914D01*
X0263500Y0052914D01*
X0261000Y0048914D01*
X0258500Y0048914D01*
X0261000Y0048914D02*
X0261000Y0054914D01*
X0130000Y0095914D02*
X0130000Y0097914D01*
X0122000Y0097914D01*
X0122000Y0095914D01*
X0126000Y0095914D01*
X0130000Y0095914D01*
X0126000Y0095914D02*
X0126000Y0093414D01*
X0124500Y0093914D02*
X0122500Y0093914D01*
X0123500Y0092914D02*
X0123500Y0094914D01*
X0120656Y0087614D02*
X0120383Y0087747D01*
X0120114Y0087887D01*
X0119848Y0088033D01*
X0119585Y0088185D01*
X0119327Y0088344D01*
X0119072Y0088509D01*
X0118822Y0088681D01*
X0118575Y0088858D01*
X0118333Y0089041D01*
X0118096Y0089230D01*
X0117863Y0089425D01*
X0117635Y0089625D01*
X0117412Y0089831D01*
X0117194Y0090042D01*
X0116981Y0090259D01*
X0116774Y0090480D01*
X0116572Y0090707D01*
X0116375Y0090938D01*
X0116184Y0091174D01*
X0115999Y0091415D01*
X0115820Y0091660D01*
X0115647Y0091909D01*
X0115480Y0092162D01*
X0115319Y0092420D01*
X0115165Y0092681D01*
X0115017Y0092946D01*
X0114875Y0093214D01*
X0114740Y0093486D01*
X0114612Y0093761D01*
X0114490Y0094039D01*
X0114375Y0094320D01*
X0114267Y0094604D01*
X0114166Y0094890D01*
X0114071Y0095178D01*
X0113984Y0095469D01*
X0113904Y0095762D01*
X0113831Y0096056D01*
X0113765Y0096352D01*
X0113707Y0096650D01*
X0113655Y0096949D01*
X0113611Y0097250D01*
X0113575Y0097551D01*
X0113545Y0097853D01*
X0113523Y0098156D01*
X0113508Y0098459D01*
X0113501Y0098762D01*
X0113501Y0099066D01*
X0113508Y0099369D01*
X0113523Y0099672D01*
X0113545Y0099975D01*
X0113575Y0100277D01*
X0113611Y0100578D01*
X0113655Y0100879D01*
X0113707Y0101178D01*
X0113765Y0101476D01*
X0113831Y0101772D01*
X0113904Y0102066D01*
X0113984Y0102359D01*
X0114071Y0102650D01*
X0114166Y0102938D01*
X0114267Y0103224D01*
X0114375Y0103508D01*
X0114490Y0103789D01*
X0114612Y0104067D01*
X0114740Y0104342D01*
X0114875Y0104614D01*
X0115017Y0104882D01*
X0115165Y0105147D01*
X0115319Y0105408D01*
X0115480Y0105666D01*
X0115647Y0105919D01*
X0115820Y0106168D01*
X0115999Y0106413D01*
X0116184Y0106654D01*
X0116375Y0106890D01*
X0116572Y0107121D01*
X0116774Y0107348D01*
X0116981Y0107569D01*
X0117194Y0107786D01*
X0117412Y0107997D01*
X0117635Y0108203D01*
X0117863Y0108403D01*
X0118096Y0108598D01*
X0118333Y0108787D01*
X0118575Y0108970D01*
X0118822Y0109147D01*
X0119072Y0109319D01*
X0119327Y0109484D01*
X0119585Y0109643D01*
X0119848Y0109795D01*
X0120114Y0109941D01*
X0120383Y0110081D01*
X0120656Y0110214D01*
X0126000Y0104414D02*
X0126000Y0101414D01*
X0131344Y0110214D02*
X0131617Y0110081D01*
X0131886Y0109941D01*
X0132152Y0109795D01*
X0132415Y0109643D01*
X0132673Y0109484D01*
X0132928Y0109319D01*
X0133178Y0109147D01*
X0133425Y0108970D01*
X0133667Y0108787D01*
X0133904Y0108598D01*
X0134137Y0108403D01*
X0134365Y0108203D01*
X0134588Y0107997D01*
X0134806Y0107786D01*
X0135019Y0107569D01*
X0135226Y0107348D01*
X0135428Y0107121D01*
X0135625Y0106890D01*
X0135816Y0106654D01*
X0136001Y0106413D01*
X0136180Y0106168D01*
X0136353Y0105919D01*
X0136520Y0105666D01*
X0136681Y0105408D01*
X0136835Y0105147D01*
X0136983Y0104882D01*
X0137125Y0104614D01*
X0137260Y0104342D01*
X0137388Y0104067D01*
X0137510Y0103789D01*
X0137625Y0103508D01*
X0137733Y0103224D01*
X0137834Y0102938D01*
X0137929Y0102650D01*
X0138016Y0102359D01*
X0138096Y0102066D01*
X0138169Y0101772D01*
X0138235Y0101476D01*
X0138293Y0101178D01*
X0138345Y0100879D01*
X0138389Y0100578D01*
X0138425Y0100277D01*
X0138455Y0099975D01*
X0138477Y0099672D01*
X0138492Y0099369D01*
X0138499Y0099066D01*
X0138499Y0098762D01*
X0138492Y0098459D01*
X0138477Y0098156D01*
X0138455Y0097853D01*
X0138425Y0097551D01*
X0138389Y0097250D01*
X0138345Y0096949D01*
X0138293Y0096650D01*
X0138235Y0096352D01*
X0138169Y0096056D01*
X0138096Y0095762D01*
X0138016Y0095469D01*
X0137929Y0095178D01*
X0137834Y0094890D01*
X0137733Y0094604D01*
X0137625Y0094320D01*
X0137510Y0094039D01*
X0137388Y0093761D01*
X0137260Y0093486D01*
X0137125Y0093214D01*
X0136983Y0092946D01*
X0136835Y0092681D01*
X0136681Y0092420D01*
X0136520Y0092162D01*
X0136353Y0091909D01*
X0136180Y0091660D01*
X0136001Y0091415D01*
X0135816Y0091174D01*
X0135625Y0090938D01*
X0135428Y0090707D01*
X0135226Y0090480D01*
X0135019Y0090259D01*
X0134806Y0090042D01*
X0134588Y0089831D01*
X0134365Y0089625D01*
X0134137Y0089425D01*
X0133904Y0089230D01*
X0133667Y0089041D01*
X0133425Y0088858D01*
X0133178Y0088681D01*
X0132928Y0088509D01*
X0132673Y0088344D01*
X0132415Y0088185D01*
X0132152Y0088033D01*
X0131886Y0087887D01*
X0131617Y0087747D01*
X0131344Y0087614D01*
D12*
X0117999Y0111164D02*
X0118750Y0111915D01*
X0118750Y0113416D01*
X0117999Y0114166D01*
X0118750Y0115768D02*
X0118750Y0118770D01*
X0118750Y0117269D02*
X0114246Y0117269D01*
X0115747Y0115768D01*
X0114997Y0114166D02*
X0114246Y0113416D01*
X0114246Y0111915D01*
X0114997Y0111164D01*
X0117999Y0111164D01*
X0096856Y0145164D02*
X0093854Y0145164D01*
X0096856Y0148166D01*
X0096856Y0148917D01*
X0096106Y0149668D01*
X0094605Y0149668D01*
X0093854Y0148917D01*
X0092253Y0148917D02*
X0092253Y0147416D01*
X0091502Y0146665D01*
X0089250Y0146665D01*
X0089250Y0145164D02*
X0089250Y0149668D01*
X0091502Y0149668D01*
X0092253Y0148917D01*
X0090751Y0146665D02*
X0092253Y0145164D01*
X0108973Y0151664D02*
X0110474Y0151664D01*
X0109723Y0151664D02*
X0109723Y0156168D01*
X0108973Y0156168D02*
X0110474Y0156168D01*
X0112042Y0155417D02*
X0112042Y0152415D01*
X0112793Y0151664D01*
X0114294Y0151664D01*
X0115045Y0152415D01*
X0116646Y0151664D02*
X0119649Y0151664D01*
X0118147Y0151664D02*
X0118147Y0156168D01*
X0116646Y0154666D01*
X0115045Y0155417D02*
X0114294Y0156168D01*
X0112793Y0156168D01*
X0112042Y0155417D01*
X0125246Y0182164D02*
X0125246Y0184416D01*
X0125997Y0185166D01*
X0127498Y0185166D01*
X0128249Y0184416D01*
X0128249Y0182164D01*
X0129750Y0182164D02*
X0125246Y0182164D01*
X0128249Y0183665D02*
X0129750Y0185166D01*
X0127498Y0186768D02*
X0127498Y0189770D01*
X0129750Y0189020D02*
X0125246Y0189020D01*
X0127498Y0186768D01*
X0105898Y0208164D02*
X0104397Y0208164D01*
X0103646Y0208915D01*
X0102045Y0208164D02*
X0100543Y0209665D01*
X0101294Y0209665D02*
X0099042Y0209665D01*
X0099042Y0208164D02*
X0099042Y0212668D01*
X0101294Y0212668D01*
X0102045Y0211917D01*
X0102045Y0210416D01*
X0101294Y0209665D01*
X0103646Y0211917D02*
X0104397Y0212668D01*
X0105898Y0212668D01*
X0106649Y0211917D01*
X0106649Y0211166D01*
X0105898Y0210416D01*
X0106649Y0209665D01*
X0106649Y0208915D01*
X0105898Y0208164D01*
X0105898Y0210416D02*
X0105147Y0210416D01*
X0154246Y0211915D02*
X0154997Y0211164D01*
X0157999Y0211164D01*
X0158750Y0211915D01*
X0158750Y0213416D01*
X0157999Y0214166D01*
X0157999Y0215768D02*
X0158750Y0216518D01*
X0158750Y0218020D01*
X0157999Y0218770D01*
X0157249Y0218770D01*
X0156498Y0218020D01*
X0156498Y0217269D01*
X0156498Y0218020D02*
X0155747Y0218770D01*
X0154997Y0218770D01*
X0154246Y0218020D01*
X0154246Y0216518D01*
X0154997Y0215768D01*
X0154997Y0214166D02*
X0154246Y0213416D01*
X0154246Y0211915D01*
X0169042Y0218164D02*
X0169042Y0222668D01*
X0171294Y0222668D01*
X0172045Y0221917D01*
X0172045Y0220416D01*
X0171294Y0219665D01*
X0169042Y0219665D01*
X0170543Y0219665D02*
X0172045Y0218164D01*
X0173646Y0218915D02*
X0174397Y0218164D01*
X0175898Y0218164D01*
X0176649Y0218915D01*
X0176649Y0220416D01*
X0175898Y0221166D01*
X0175147Y0221166D01*
X0173646Y0220416D01*
X0173646Y0222668D01*
X0176649Y0222668D01*
X0202246Y0209562D02*
X0202997Y0208061D01*
X0204498Y0206560D01*
X0204498Y0208812D01*
X0205249Y0209562D01*
X0205999Y0209562D01*
X0206750Y0208812D01*
X0206750Y0207311D01*
X0205999Y0206560D01*
X0204498Y0206560D01*
X0204498Y0204959D02*
X0205249Y0204208D01*
X0205249Y0201956D01*
X0206750Y0201956D02*
X0202246Y0201956D01*
X0202246Y0204208D01*
X0202997Y0204959D01*
X0204498Y0204959D01*
X0205249Y0203457D02*
X0206750Y0204959D01*
X0220246Y0227664D02*
X0220246Y0229165D01*
X0220246Y0228415D02*
X0224750Y0228415D01*
X0224750Y0229165D02*
X0224750Y0227664D01*
X0223999Y0230733D02*
X0220997Y0230733D01*
X0220246Y0231484D01*
X0220246Y0232985D01*
X0220997Y0233736D01*
X0222498Y0235337D02*
X0220246Y0237589D01*
X0224750Y0237589D01*
X0222498Y0238340D02*
X0222498Y0235337D01*
X0223999Y0233736D02*
X0224750Y0232985D01*
X0224750Y0231484D01*
X0223999Y0230733D01*
X0265246Y0193624D02*
X0265997Y0194374D01*
X0266747Y0194374D01*
X0267498Y0193624D01*
X0268249Y0194374D01*
X0268999Y0194374D01*
X0269750Y0193624D01*
X0269750Y0192122D01*
X0268999Y0191372D01*
X0269750Y0189770D02*
X0269750Y0186768D01*
X0269750Y0188269D02*
X0265246Y0188269D01*
X0266747Y0186768D01*
X0265997Y0185166D02*
X0267498Y0185166D01*
X0268249Y0184416D01*
X0268249Y0182164D01*
X0269750Y0182164D02*
X0265246Y0182164D01*
X0265246Y0184416D01*
X0265997Y0185166D01*
X0268249Y0183665D02*
X0269750Y0185166D01*
X0265997Y0191372D02*
X0265246Y0192122D01*
X0265246Y0193624D01*
X0267498Y0193624D02*
X0267498Y0192873D01*
X0237649Y0174416D02*
X0234646Y0174416D01*
X0236898Y0176668D01*
X0236898Y0172164D01*
X0233045Y0172915D02*
X0232294Y0172164D01*
X0230793Y0172164D01*
X0230042Y0172915D01*
X0230042Y0175917D01*
X0230793Y0176668D01*
X0232294Y0176668D01*
X0233045Y0175917D01*
X0221856Y0174668D02*
X0221856Y0173917D01*
X0218854Y0170915D01*
X0218854Y0170164D01*
X0217253Y0170164D02*
X0215751Y0171665D01*
X0216502Y0171665D02*
X0214250Y0171665D01*
X0214250Y0170164D02*
X0214250Y0174668D01*
X0216502Y0174668D01*
X0217253Y0173917D01*
X0217253Y0172416D01*
X0216502Y0171665D01*
X0218854Y0174668D02*
X0221856Y0174668D01*
X0237997Y0139563D02*
X0237246Y0138812D01*
X0237246Y0137311D01*
X0237997Y0136560D01*
X0238747Y0136560D01*
X0239498Y0137311D01*
X0239498Y0138812D01*
X0240249Y0139563D01*
X0240999Y0139563D01*
X0241750Y0138812D01*
X0241750Y0137311D01*
X0240999Y0136560D01*
X0240249Y0136560D01*
X0239498Y0137311D01*
X0239498Y0138812D02*
X0238747Y0139563D01*
X0237997Y0139563D01*
X0237997Y0134959D02*
X0237246Y0134208D01*
X0237246Y0131956D01*
X0241750Y0131956D01*
X0240249Y0131956D02*
X0240249Y0134208D01*
X0239498Y0134959D01*
X0237997Y0134959D01*
X0240249Y0133457D02*
X0241750Y0134959D01*
X0252246Y0134208D02*
X0252246Y0131956D01*
X0256750Y0131956D01*
X0255249Y0131956D02*
X0255249Y0134208D01*
X0254498Y0134959D01*
X0252997Y0134959D01*
X0252246Y0134208D01*
X0252997Y0136560D02*
X0253747Y0136560D01*
X0254498Y0137311D01*
X0254498Y0139563D01*
X0255999Y0139563D02*
X0252997Y0139563D01*
X0252246Y0138812D01*
X0252246Y0137311D01*
X0252997Y0136560D01*
X0255999Y0136560D02*
X0256750Y0137311D01*
X0256750Y0138812D01*
X0255999Y0139563D01*
X0256750Y0134959D02*
X0255249Y0133457D01*
X0253999Y0129374D02*
X0250997Y0129374D01*
X0253999Y0126372D01*
X0254750Y0127122D01*
X0254750Y0128624D01*
X0253999Y0129374D01*
X0250997Y0129374D02*
X0250246Y0128624D01*
X0250246Y0127122D01*
X0250997Y0126372D01*
X0253999Y0126372D01*
X0254750Y0124770D02*
X0254750Y0121768D01*
X0254750Y0123269D02*
X0250246Y0123269D01*
X0251747Y0121768D01*
X0250997Y0120166D02*
X0252498Y0120166D01*
X0253249Y0119416D01*
X0253249Y0117164D01*
X0254750Y0117164D02*
X0250246Y0117164D01*
X0250246Y0119416D01*
X0250997Y0120166D01*
X0253249Y0118665D02*
X0254750Y0120166D01*
X0280246Y0152164D02*
X0280246Y0154416D01*
X0280997Y0155166D01*
X0282498Y0155166D01*
X0283249Y0154416D01*
X0283249Y0152164D01*
X0284750Y0152164D02*
X0280246Y0152164D01*
X0283249Y0153665D02*
X0284750Y0155166D01*
X0284750Y0156768D02*
X0284750Y0159770D01*
X0284750Y0158269D02*
X0280246Y0158269D01*
X0281747Y0156768D01*
X0280997Y0161372D02*
X0280246Y0162122D01*
X0280246Y0163624D01*
X0280997Y0164374D01*
X0281747Y0164374D01*
X0284750Y0161372D01*
X0284750Y0164374D01*
X0333246Y0165269D02*
X0334747Y0163768D01*
X0333246Y0165269D02*
X0337750Y0165269D01*
X0337750Y0163768D02*
X0337750Y0166770D01*
X0337750Y0162166D02*
X0333246Y0159164D01*
X0333246Y0162166D02*
X0337750Y0159164D01*
X0304750Y0099374D02*
X0304750Y0096372D01*
X0304750Y0097873D02*
X0300246Y0097873D01*
X0301747Y0096372D01*
X0304750Y0094770D02*
X0304750Y0091768D01*
X0304750Y0093269D02*
X0300246Y0093269D01*
X0301747Y0091768D01*
X0300997Y0090166D02*
X0300246Y0089416D01*
X0300246Y0087164D01*
X0304750Y0087164D01*
X0303249Y0087164D02*
X0303249Y0089416D01*
X0302498Y0090166D01*
X0300997Y0090166D01*
X0303249Y0088665D02*
X0304750Y0090166D01*
X0255750Y0056562D02*
X0255750Y0053560D01*
X0252747Y0056562D01*
X0251997Y0056562D01*
X0251246Y0055812D01*
X0251246Y0054311D01*
X0251997Y0053560D01*
X0251997Y0051959D02*
X0251246Y0051208D01*
X0251246Y0048956D01*
X0255750Y0048956D01*
X0255750Y0051208D01*
X0254999Y0051959D01*
X0251997Y0051959D01*
X0255750Y0047770D02*
X0255750Y0044768D01*
X0255750Y0046269D02*
X0251246Y0046269D01*
X0252747Y0044768D01*
X0251997Y0043166D02*
X0251246Y0042416D01*
X0251246Y0040164D01*
X0255750Y0040164D01*
X0255750Y0042416D01*
X0254999Y0043166D01*
X0251997Y0043166D01*
X0159750Y0052664D02*
X0159750Y0054165D01*
X0159750Y0053415D02*
X0155246Y0053415D01*
X0155246Y0054165D02*
X0155246Y0052664D01*
X0155997Y0055733D02*
X0158999Y0055733D01*
X0159750Y0056484D01*
X0159750Y0057985D01*
X0158999Y0058736D01*
X0158999Y0060337D02*
X0159750Y0061088D01*
X0159750Y0062589D01*
X0158999Y0063340D01*
X0158249Y0063340D01*
X0157498Y0062589D01*
X0157498Y0061838D01*
X0157498Y0062589D02*
X0156747Y0063340D01*
X0155997Y0063340D01*
X0155246Y0062589D01*
X0155246Y0061088D01*
X0155997Y0060337D01*
X0155997Y0058736D02*
X0155246Y0057985D01*
X0155246Y0056484D01*
X0155997Y0055733D01*
X0155246Y0132664D02*
X0155246Y0134165D01*
X0155246Y0133415D02*
X0159750Y0133415D01*
X0159750Y0134165D02*
X0159750Y0132664D01*
X0158999Y0135733D02*
X0155997Y0135733D01*
X0155246Y0136484D01*
X0155246Y0137985D01*
X0155997Y0138736D01*
X0155997Y0140337D02*
X0155246Y0141088D01*
X0155246Y0142589D01*
X0155997Y0143340D01*
X0156747Y0143340D01*
X0159750Y0140337D01*
X0159750Y0143340D01*
X0158999Y0138736D02*
X0159750Y0137985D01*
X0159750Y0136484D01*
X0158999Y0135733D01*
X0052750Y0205665D02*
X0051249Y0207166D01*
X0048246Y0207166D01*
X0048246Y0204164D02*
X0051249Y0204164D01*
X0052750Y0205665D01*
X0053249Y0212164D02*
X0053249Y0214416D01*
X0052498Y0215166D01*
X0050997Y0215166D01*
X0050246Y0214416D01*
X0050246Y0212164D01*
X0054750Y0212164D01*
X0053249Y0213665D02*
X0054750Y0215166D01*
X0054750Y0216768D02*
X0054750Y0219770D01*
X0054750Y0218269D02*
X0050246Y0218269D01*
X0051747Y0216768D01*
X0027750Y0120562D02*
X0027750Y0117560D01*
X0024747Y0120562D01*
X0023997Y0120562D01*
X0023246Y0119812D01*
X0023246Y0118311D01*
X0023997Y0117560D01*
X0023997Y0115959D02*
X0023246Y0115208D01*
X0023246Y0113707D01*
X0023997Y0112956D01*
X0026999Y0112956D01*
X0027750Y0113707D01*
X0027750Y0115208D01*
X0026999Y0115959D01*
X0043246Y0030236D02*
X0047750Y0030236D01*
X0043246Y0027233D01*
X0047750Y0027233D01*
X0047750Y0025665D02*
X0047750Y0024164D01*
X0047750Y0024915D02*
X0043246Y0024915D01*
X0043246Y0025665D02*
X0043246Y0024164D01*
X0275246Y0232164D02*
X0275246Y0234416D01*
X0275997Y0235166D01*
X0277498Y0235166D01*
X0278249Y0234416D01*
X0278249Y0232164D01*
X0279750Y0232164D02*
X0275246Y0232164D01*
X0278249Y0233665D02*
X0279750Y0235166D01*
X0279750Y0236768D02*
X0279750Y0239770D01*
X0279750Y0238269D02*
X0275246Y0238269D01*
X0276747Y0236768D01*
X0277498Y0241372D02*
X0275246Y0243624D01*
X0279750Y0243624D01*
X0277498Y0244374D02*
X0277498Y0241372D01*
D13*
X0321000Y0223914D03*
X0166000Y0200914D03*
X0126000Y0100914D03*
X0016000Y0131914D03*
X0246000Y0055414D03*
X0261000Y0042414D03*
D14*
X0249000Y0183914D03*
X0321000Y0223914D03*
D15*
X0261000Y0059164D03*
X0246000Y0059164D03*
X0246000Y0038664D03*
X0261000Y0038664D03*
D16*
X0311000Y0084714D03*
X0311000Y0113114D03*
X0291000Y0149714D03*
X0261000Y0143114D03*
X0246000Y0143114D03*
X0231000Y0143114D03*
X0231000Y0114714D03*
X0246000Y0114714D03*
X0261000Y0114714D03*
X0276000Y0179714D03*
X0291000Y0178114D03*
X0276000Y0208114D03*
X0286000Y0229714D03*
X0286000Y0258114D03*
X0196000Y0213114D03*
X0196000Y0184714D03*
X0136000Y0179714D03*
X0136000Y0208114D03*
X0061000Y0209714D03*
X0061000Y0238114D03*
D17*
X0081800Y0218914D03*
X0110200Y0218914D03*
X0151800Y0228914D03*
X0180200Y0228914D03*
X0211800Y0163914D03*
X0240200Y0163914D03*
X0115200Y0138914D03*
X0086800Y0138914D03*
D18*
X0311298Y0241436D02*
X0312066Y0240669D01*
X0313600Y0240669D01*
X0314368Y0241436D01*
X0314368Y0245273D01*
X0315902Y0244506D02*
X0316670Y0245273D01*
X0318204Y0245273D01*
X0318972Y0244506D01*
X0320506Y0243738D02*
X0322041Y0245273D01*
X0322041Y0240669D01*
X0320506Y0240669D02*
X0323576Y0240669D01*
X0318972Y0241436D02*
X0318972Y0242204D01*
X0318204Y0242971D01*
X0316670Y0242971D01*
X0315902Y0243738D01*
X0315902Y0244506D01*
X0317437Y0246040D02*
X0317437Y0239902D01*
X0318204Y0240669D02*
X0318972Y0241436D01*
X0318204Y0240669D02*
X0316670Y0240669D01*
X0315902Y0241436D01*
X0311298Y0241436D02*
X0311298Y0245273D01*
M02*
